<mxfile host="app.diagrams.net" agent="Mozilla/5.0 (Windows NT 10.0; Win64; x64) AppleWebKit/537.36 (KHTML, like Gecko) Chrome/133.0.0.0 Safari/537.36" version="26.0.11">
  <diagram name="Page-1" id="-umisi_-6QniBuimwbDl">
    <mxGraphModel dx="6834" dy="2513" grid="1" gridSize="10" guides="1" tooltips="1" connect="1" arrows="1" fold="1" page="1" pageScale="1" pageWidth="827" pageHeight="1169" math="0" shadow="0">
      <root>
        <mxCell id="0" />
        <mxCell id="1" parent="0" />
        <mxCell id="f4Ga0egmDkygM2l4F1vE-1" value="" style="rounded=0;whiteSpace=wrap;html=1;gradientColor=none;fillColor=default;movable=0;resizable=0;rotatable=0;deletable=0;editable=0;locked=1;connectable=0;" parent="1" vertex="1">
          <mxGeometry x="50" y="1686.87" width="1620" height="1430" as="geometry" />
        </mxCell>
        <mxCell id="CxqRlVixFyMvA21ITtKy-3" value="" style="ellipse;whiteSpace=wrap;html=1;labelBackgroundColor=none;fillColor=#dae8fc;strokeColor=#6c8ebf;" parent="1" vertex="1">
          <mxGeometry x="-205" y="880" width="320" height="135" as="geometry" />
        </mxCell>
        <mxCell id="Ej3W2Y3ICZFqdodrJrVc-4" value="" style="rounded=0;whiteSpace=wrap;html=1;" parent="1" vertex="1">
          <mxGeometry x="400" y="965" width="870" height="510" as="geometry" />
        </mxCell>
        <mxCell id="Ej3W2Y3ICZFqdodrJrVc-6" value="Create Backup" style="ellipse;whiteSpace=wrap;html=1;" parent="1" vertex="1">
          <mxGeometry x="423" y="1000" width="120" height="80" as="geometry" />
        </mxCell>
        <mxCell id="Ej3W2Y3ICZFqdodrJrVc-7" value="Run Backup" style="ellipse;whiteSpace=wrap;html=1;" parent="1" vertex="1">
          <mxGeometry x="423" y="1230" width="120" height="80" as="geometry" />
        </mxCell>
        <mxCell id="Ej3W2Y3ICZFqdodrJrVc-8" value="List Backup" style="ellipse;whiteSpace=wrap;html=1;" parent="1" vertex="1">
          <mxGeometry x="740" y="1120" width="120" height="80" as="geometry" />
        </mxCell>
        <mxCell id="Ej3W2Y3ICZFqdodrJrVc-9" value="Delete Backup" style="ellipse;whiteSpace=wrap;html=1;" parent="1" vertex="1">
          <mxGeometry x="423" y="1370" width="120" height="80" as="geometry" />
        </mxCell>
        <mxCell id="Ej3W2Y3ICZFqdodrJrVc-10" value="" style="endArrow=classic;html=1;rounded=0;entryX=0.96;entryY=0.338;entryDx=0;entryDy=0;exitX=0.221;exitY=0.9;exitDx=0;exitDy=0;exitPerimeter=0;entryPerimeter=0;" parent="1" source="Ej3W2Y3ICZFqdodrJrVc-8" target="Ej3W2Y3ICZFqdodrJrVc-9" edge="1">
          <mxGeometry width="50" height="50" relative="1" as="geometry">
            <mxPoint x="620" y="1330" as="sourcePoint" />
            <mxPoint x="670" y="1280" as="targetPoint" />
          </mxGeometry>
        </mxCell>
        <mxCell id="Ej3W2Y3ICZFqdodrJrVc-11" value="&amp;lt;include&amp;gt;" style="edgeLabel;html=1;align=center;verticalAlign=middle;resizable=0;points=[];" parent="Ej3W2Y3ICZFqdodrJrVc-10" vertex="1" connectable="0">
          <mxGeometry x="-0.2805" y="2" relative="1" as="geometry">
            <mxPoint as="offset" />
          </mxGeometry>
        </mxCell>
        <mxCell id="Ej3W2Y3ICZFqdodrJrVc-12" value="" style="endArrow=classic;html=1;rounded=0;entryX=1.003;entryY=0.388;entryDx=0;entryDy=0;entryPerimeter=0;exitX=0.082;exitY=0.765;exitDx=0;exitDy=0;exitPerimeter=0;" parent="1" source="Ej3W2Y3ICZFqdodrJrVc-8" target="Ej3W2Y3ICZFqdodrJrVc-7" edge="1">
          <mxGeometry width="50" height="50" relative="1" as="geometry">
            <mxPoint x="250" y="1170" as="sourcePoint" />
            <mxPoint x="300" y="1120" as="targetPoint" />
          </mxGeometry>
        </mxCell>
        <mxCell id="Ej3W2Y3ICZFqdodrJrVc-13" value="&amp;lt;include&amp;gt;" style="edgeLabel;html=1;align=center;verticalAlign=middle;resizable=0;points=[];" parent="Ej3W2Y3ICZFqdodrJrVc-12" vertex="1" connectable="0">
          <mxGeometry x="-0.1767" y="-1" relative="1" as="geometry">
            <mxPoint as="offset" />
          </mxGeometry>
        </mxCell>
        <mxCell id="Ej3W2Y3ICZFqdodrJrVc-14" value="" style="endArrow=classic;html=1;rounded=0;entryX=0;entryY=0.5;entryDx=0;entryDy=0;exitX=1;exitY=0.3333333333333333;exitDx=0;exitDy=0;exitPerimeter=0;" parent="1" source="Ej3W2Y3ICZFqdodrJrVc-5" target="Ej3W2Y3ICZFqdodrJrVc-6" edge="1">
          <mxGeometry width="50" height="50" relative="1" as="geometry">
            <mxPoint x="150" y="1250" as="sourcePoint" />
            <mxPoint x="220" y="1030" as="targetPoint" />
          </mxGeometry>
        </mxCell>
        <mxCell id="Ej3W2Y3ICZFqdodrJrVc-15" value="" style="endArrow=classic;html=1;rounded=0;entryX=0;entryY=0.5;entryDx=0;entryDy=0;" parent="1" target="Ej3W2Y3ICZFqdodrJrVc-7" edge="1">
          <mxGeometry width="50" height="50" relative="1" as="geometry">
            <mxPoint x="120" y="1180" as="sourcePoint" />
            <mxPoint x="200" y="1380" as="targetPoint" />
          </mxGeometry>
        </mxCell>
        <mxCell id="Ej3W2Y3ICZFqdodrJrVc-16" value="" style="endArrow=classic;html=1;rounded=0;entryX=0;entryY=0.5;entryDx=0;entryDy=0;" parent="1" target="Ej3W2Y3ICZFqdodrJrVc-9" edge="1">
          <mxGeometry width="50" height="50" relative="1" as="geometry">
            <mxPoint x="120" y="1180" as="sourcePoint" />
            <mxPoint x="270" y="1410" as="targetPoint" />
          </mxGeometry>
        </mxCell>
        <mxCell id="Ej3W2Y3ICZFqdodrJrVc-17" value="" style="endArrow=classic;html=1;rounded=0;entryX=0.033;entryY=0.442;entryDx=0;entryDy=0;entryPerimeter=0;" parent="1" source="Ej3W2Y3ICZFqdodrJrVc-5" target="Ej3W2Y3ICZFqdodrJrVc-8" edge="1">
          <mxGeometry width="50" height="50" relative="1" as="geometry">
            <mxPoint x="120" y="1180" as="sourcePoint" />
            <mxPoint x="250" y="1140" as="targetPoint" />
          </mxGeometry>
        </mxCell>
        <mxCell id="Ej3W2Y3ICZFqdodrJrVc-18" value="&lt;span&gt;Backup Full&lt;/span&gt;" style="ellipse;whiteSpace=wrap;html=1;fontStyle=0" parent="1" vertex="1">
          <mxGeometry x="720" y="990" width="100" height="45" as="geometry" />
        </mxCell>
        <mxCell id="Ej3W2Y3ICZFqdodrJrVc-20" value="Fichier json" style="ellipse;whiteSpace=wrap;html=1;" parent="1" vertex="1">
          <mxGeometry x="1130" y="1015" width="120" height="80" as="geometry" />
        </mxCell>
        <mxCell id="Ej3W2Y3ICZFqdodrJrVc-23" value="&lt;span&gt;Backup DiffÃ©rential&lt;/span&gt;" style="ellipse;whiteSpace=wrap;html=1;fontStyle=0" parent="1" vertex="1">
          <mxGeometry x="700" y="1050" width="100" height="45" as="geometry" />
        </mxCell>
        <mxCell id="Ej3W2Y3ICZFqdodrJrVc-24" value="&lt;span&gt;Name, source, destination&lt;/span&gt;" style="ellipse;whiteSpace=wrap;html=1;fontStyle=0" parent="1" vertex="1">
          <mxGeometry x="580" y="1017.5" width="100" height="45" as="geometry" />
        </mxCell>
        <mxCell id="Ej3W2Y3ICZFqdodrJrVc-25" value="" style="endArrow=classic;html=1;rounded=0;entryX=0;entryY=0.5;entryDx=0;entryDy=0;exitX=1;exitY=0.5;exitDx=0;exitDy=0;" parent="1" source="Ej3W2Y3ICZFqdodrJrVc-6" target="Ej3W2Y3ICZFqdodrJrVc-24" edge="1">
          <mxGeometry width="50" height="50" relative="1" as="geometry">
            <mxPoint x="270" y="1130" as="sourcePoint" />
            <mxPoint x="320" y="1080" as="targetPoint" />
          </mxGeometry>
        </mxCell>
        <mxCell id="Ej3W2Y3ICZFqdodrJrVc-26" value="" style="endArrow=classic;html=1;rounded=0;entryX=0;entryY=0.5;entryDx=0;entryDy=0;exitX=1;exitY=0;exitDx=0;exitDy=0;" parent="1" source="Ej3W2Y3ICZFqdodrJrVc-24" target="Ej3W2Y3ICZFqdodrJrVc-18" edge="1">
          <mxGeometry width="50" height="50" relative="1" as="geometry">
            <mxPoint x="220" y="1080" as="sourcePoint" />
            <mxPoint x="270" y="1030" as="targetPoint" />
          </mxGeometry>
        </mxCell>
        <mxCell id="Ej3W2Y3ICZFqdodrJrVc-27" value="" style="endArrow=classic;html=1;rounded=0;entryX=0;entryY=0.5;entryDx=0;entryDy=0;exitX=0.934;exitY=0.766;exitDx=0;exitDy=0;exitPerimeter=0;" parent="1" source="Ej3W2Y3ICZFqdodrJrVc-24" target="Ej3W2Y3ICZFqdodrJrVc-23" edge="1">
          <mxGeometry width="50" height="50" relative="1" as="geometry">
            <mxPoint x="675" y="1034" as="sourcePoint" />
            <mxPoint x="740" y="1003" as="targetPoint" />
          </mxGeometry>
        </mxCell>
        <mxCell id="Ej3W2Y3ICZFqdodrJrVc-28" value="Log File" style="ellipse;whiteSpace=wrap;html=1;" parent="1" vertex="1">
          <mxGeometry x="980" y="1300" width="120" height="80" as="geometry" />
        </mxCell>
        <mxCell id="Ej3W2Y3ICZFqdodrJrVc-29" value="State File" style="ellipse;whiteSpace=wrap;html=1;" parent="1" vertex="1">
          <mxGeometry x="1090" y="1170" width="120" height="80" as="geometry" />
        </mxCell>
        <mxCell id="Ej3W2Y3ICZFqdodrJrVc-31" value="" style="endArrow=classic;html=1;rounded=0;entryX=0.971;entryY=0.379;entryDx=0;entryDy=0;exitX=0;exitY=0.5;exitDx=0;exitDy=0;entryPerimeter=0;" parent="1" source="Ej3W2Y3ICZFqdodrJrVc-20" target="Ej3W2Y3ICZFqdodrJrVc-8" edge="1">
          <mxGeometry width="50" height="50" relative="1" as="geometry">
            <mxPoint x="860" y="1170" as="sourcePoint" />
            <mxPoint x="910" y="1120" as="targetPoint" />
          </mxGeometry>
        </mxCell>
        <mxCell id="Ej3W2Y3ICZFqdodrJrVc-32" value="&amp;lt;include&amp;gt;" style="edgeLabel;html=1;align=center;verticalAlign=middle;resizable=0;points=[];" parent="Ej3W2Y3ICZFqdodrJrVc-31" vertex="1" connectable="0">
          <mxGeometry x="-0.3628" y="1" relative="1" as="geometry">
            <mxPoint as="offset" />
          </mxGeometry>
        </mxCell>
        <mxCell id="Ej3W2Y3ICZFqdodrJrVc-39" value="" style="endArrow=classic;html=1;rounded=0;entryX=0.325;entryY=0.046;entryDx=0;entryDy=0;dashed=1;entryPerimeter=0;" parent="1" target="Ej3W2Y3ICZFqdodrJrVc-28" edge="1">
          <mxGeometry width="50" height="50" relative="1" as="geometry">
            <mxPoint x="920" y="1040" as="sourcePoint" />
            <mxPoint x="820" y="1230" as="targetPoint" />
          </mxGeometry>
        </mxCell>
        <mxCell id="Ej3W2Y3ICZFqdodrJrVc-40" value="&amp;lt;extend&amp;gt;" style="edgeLabel;html=1;align=center;verticalAlign=middle;resizable=0;points=[];" parent="Ej3W2Y3ICZFqdodrJrVc-39" vertex="1" connectable="0">
          <mxGeometry x="-0.3588" y="-1" relative="1" as="geometry">
            <mxPoint as="offset" />
          </mxGeometry>
        </mxCell>
        <mxCell id="Ej3W2Y3ICZFqdodrJrVc-43" value="" style="endArrow=classic;html=1;rounded=0;exitX=1;exitY=0.5;exitDx=0;exitDy=0;entryX=0.103;entryY=0.202;entryDx=0;entryDy=0;dashed=1;entryPerimeter=0;" parent="1" source="Ej3W2Y3ICZFqdodrJrVc-7" target="Ej3W2Y3ICZFqdodrJrVc-28" edge="1">
          <mxGeometry width="50" height="50" relative="1" as="geometry">
            <mxPoint x="750" y="1350" as="sourcePoint" />
            <mxPoint x="800" y="1300" as="targetPoint" />
          </mxGeometry>
        </mxCell>
        <mxCell id="Ej3W2Y3ICZFqdodrJrVc-45" value="&amp;lt;extend&amp;gt;" style="edgeLabel;html=1;align=center;verticalAlign=middle;resizable=0;points=[];" parent="Ej3W2Y3ICZFqdodrJrVc-43" vertex="1" connectable="0">
          <mxGeometry x="-0.2006" y="-3" relative="1" as="geometry">
            <mxPoint as="offset" />
          </mxGeometry>
        </mxCell>
        <mxCell id="Ej3W2Y3ICZFqdodrJrVc-44" value="" style="endArrow=classic;html=1;rounded=0;exitX=1;exitY=0.5;exitDx=0;exitDy=0;entryX=0.047;entryY=0.65;entryDx=0;entryDy=0;dashed=1;entryPerimeter=0;" parent="1" source="Ej3W2Y3ICZFqdodrJrVc-9" target="Ej3W2Y3ICZFqdodrJrVc-28" edge="1">
          <mxGeometry width="50" height="50" relative="1" as="geometry">
            <mxPoint x="690" y="1440" as="sourcePoint" />
            <mxPoint x="740" y="1390" as="targetPoint" />
          </mxGeometry>
        </mxCell>
        <mxCell id="Ej3W2Y3ICZFqdodrJrVc-46" value="&amp;lt;extend&amp;gt;" style="edgeLabel;html=1;align=center;verticalAlign=middle;resizable=0;points=[];" parent="Ej3W2Y3ICZFqdodrJrVc-44" vertex="1" connectable="0">
          <mxGeometry x="-0.0301" y="-1" relative="1" as="geometry">
            <mxPoint as="offset" />
          </mxGeometry>
        </mxCell>
        <mxCell id="Ej3W2Y3ICZFqdodrJrVc-47" value="" style="endArrow=classic;html=1;rounded=0;entryX=0.075;entryY=0.223;entryDx=0;entryDy=0;entryPerimeter=0;" parent="1" target="Ej3W2Y3ICZFqdodrJrVc-5" edge="1">
          <mxGeometry width="50" height="50" relative="1" as="geometry">
            <mxPoint x="120" y="1180" as="sourcePoint" />
            <mxPoint x="669" y="1148" as="targetPoint" />
          </mxGeometry>
        </mxCell>
        <mxCell id="Ej3W2Y3ICZFqdodrJrVc-5" value="User" style="shape=umlActor;verticalLabelPosition=bottom;verticalAlign=top;html=1;" parent="1" vertex="1">
          <mxGeometry x="120" y="1160" width="30" height="60" as="geometry" />
        </mxCell>
        <mxCell id="Ej3W2Y3ICZFqdodrJrVc-48" value="" style="endArrow=none;dashed=1;html=1;dashPattern=1 3;strokeWidth=2;rounded=0;entryX=1;entryY=0.5;entryDx=0;entryDy=0;exitX=0.013;exitY=0.369;exitDx=0;exitDy=0;exitPerimeter=0;" parent="1" source="Ej3W2Y3ICZFqdodrJrVc-20" target="Ej3W2Y3ICZFqdodrJrVc-18" edge="1">
          <mxGeometry width="50" height="50" relative="1" as="geometry">
            <mxPoint x="1040" y="930" as="sourcePoint" />
            <mxPoint x="1090" y="880" as="targetPoint" />
            <Array as="points">
              <mxPoint x="920" y="1040" />
            </Array>
          </mxGeometry>
        </mxCell>
        <mxCell id="Ej3W2Y3ICZFqdodrJrVc-49" value="" style="endArrow=none;dashed=1;html=1;dashPattern=1 3;strokeWidth=2;rounded=0;entryX=1;entryY=0.5;entryDx=0;entryDy=0;exitX=0.013;exitY=0.369;exitDx=0;exitDy=0;exitPerimeter=0;" parent="1" source="Ej3W2Y3ICZFqdodrJrVc-20" target="Ej3W2Y3ICZFqdodrJrVc-23" edge="1">
          <mxGeometry width="50" height="50" relative="1" as="geometry">
            <mxPoint x="1162" y="1040" as="sourcePoint" />
            <mxPoint x="830" y="1023" as="targetPoint" />
            <Array as="points">
              <mxPoint x="920" y="1040" />
            </Array>
          </mxGeometry>
        </mxCell>
        <mxCell id="Ej3W2Y3ICZFqdodrJrVc-50" value="&amp;lt;extend&amp;gt;" style="edgeLabel;html=1;align=center;verticalAlign=middle;resizable=0;points=[];" parent="Ej3W2Y3ICZFqdodrJrVc-49" vertex="1" connectable="0">
          <mxGeometry x="0.1577" y="1" relative="1" as="geometry">
            <mxPoint as="offset" />
          </mxGeometry>
        </mxCell>
        <mxCell id="Ej3W2Y3ICZFqdodrJrVc-51" value="" style="endArrow=classic;html=1;rounded=0;entryX=0.026;entryY=0.358;entryDx=0;entryDy=0;dashed=1;entryPerimeter=0;" parent="1" target="Ej3W2Y3ICZFqdodrJrVc-29" edge="1">
          <mxGeometry width="50" height="50" relative="1" as="geometry">
            <mxPoint x="920" y="1040" as="sourcePoint" />
            <mxPoint x="1108" y="1342" as="targetPoint" />
          </mxGeometry>
        </mxCell>
        <mxCell id="Ej3W2Y3ICZFqdodrJrVc-52" value="&amp;lt;extend&amp;gt;" style="edgeLabel;html=1;align=center;verticalAlign=middle;resizable=0;points=[];" parent="Ej3W2Y3ICZFqdodrJrVc-51" vertex="1" connectable="0">
          <mxGeometry x="-0.3588" y="-1" relative="1" as="geometry">
            <mxPoint as="offset" />
          </mxGeometry>
        </mxCell>
        <mxCell id="Ej3W2Y3ICZFqdodrJrVc-53" value="" style="endArrow=classic;html=1;rounded=0;entryX=0;entryY=0.5;entryDx=0;entryDy=0;dashed=1;" parent="1" target="Ej3W2Y3ICZFqdodrJrVc-29" edge="1">
          <mxGeometry width="50" height="50" relative="1" as="geometry">
            <mxPoint x="550" y="1270" as="sourcePoint" />
            <mxPoint x="1092" y="1379" as="targetPoint" />
          </mxGeometry>
        </mxCell>
        <mxCell id="Ej3W2Y3ICZFqdodrJrVc-54" value="&amp;lt;extend&amp;gt;" style="edgeLabel;html=1;align=center;verticalAlign=middle;resizable=0;points=[];" parent="Ej3W2Y3ICZFqdodrJrVc-53" vertex="1" connectable="0">
          <mxGeometry x="-0.2006" y="-3" relative="1" as="geometry">
            <mxPoint as="offset" />
          </mxGeometry>
        </mxCell>
        <mxCell id="Ej3W2Y3ICZFqdodrJrVc-55" value="" style="endArrow=classic;html=1;rounded=0;exitX=1;exitY=0;exitDx=0;exitDy=0;entryX=0.04;entryY=0.619;entryDx=0;entryDy=0;dashed=1;entryPerimeter=0;" parent="1" source="Ej3W2Y3ICZFqdodrJrVc-9" target="Ej3W2Y3ICZFqdodrJrVc-29" edge="1">
          <mxGeometry width="50" height="50" relative="1" as="geometry">
            <mxPoint x="553" y="1420" as="sourcePoint" />
            <mxPoint x="1108" y="1398" as="targetPoint" />
          </mxGeometry>
        </mxCell>
        <mxCell id="Ej3W2Y3ICZFqdodrJrVc-56" value="&amp;lt;extend&amp;gt;" style="edgeLabel;html=1;align=center;verticalAlign=middle;resizable=0;points=[];" parent="Ej3W2Y3ICZFqdodrJrVc-55" vertex="1" connectable="0">
          <mxGeometry x="-0.0301" y="-1" relative="1" as="geometry">
            <mxPoint as="offset" />
          </mxGeometry>
        </mxCell>
        <mxCell id="CxqRlVixFyMvA21ITtKy-1" value="Use case :" style="text;html=1;align=center;verticalAlign=middle;whiteSpace=wrap;rounded=0;fontSize=50;fontColor=#3399FF;fontStyle=5" parent="1" vertex="1">
          <mxGeometry x="-195" y="930" width="310" height="30" as="geometry" />
        </mxCell>
        <mxCell id="CxqRlVixFyMvA21ITtKy-4" value="" style="ellipse;whiteSpace=wrap;html=1;labelBackgroundColor=none;fillColor=#dae8fc;strokeColor=#6c8ebf;" parent="1" vertex="1">
          <mxGeometry x="-210" y="1520" width="320" height="135" as="geometry" />
        </mxCell>
        <mxCell id="CxqRlVixFyMvA21ITtKy-5" value="ActivitÃ©s :" style="text;html=1;align=center;verticalAlign=middle;whiteSpace=wrap;rounded=0;fontSize=50;fontColor=#3399FF;fontStyle=5" parent="1" vertex="1">
          <mxGeometry x="-200" y="1570" width="310" height="30" as="geometry" />
        </mxCell>
        <mxCell id="f4Ga0egmDkygM2l4F1vE-2" value="Choose language" style="ellipse;whiteSpace=wrap;html=1;fontSize=18;" parent="1" vertex="1">
          <mxGeometry x="790" y="1876.87" width="120" height="80" as="geometry" />
        </mxCell>
        <mxCell id="f4Ga0egmDkygM2l4F1vE-3" value="" style="ellipse;whiteSpace=wrap;html=1;aspect=fixed;fillColor=#000000;" parent="1" vertex="1">
          <mxGeometry x="835" y="1746.87" width="30" height="30" as="geometry" />
        </mxCell>
        <mxCell id="f4Ga0egmDkygM2l4F1vE-4" value="" style="endArrow=none;html=1;rounded=0;entryX=0.5;entryY=1;entryDx=0;entryDy=0;exitX=0.5;exitY=0;exitDx=0;exitDy=0;" parent="1" source="f4Ga0egmDkygM2l4F1vE-2" target="f4Ga0egmDkygM2l4F1vE-3" edge="1">
          <mxGeometry width="50" height="50" relative="1" as="geometry">
            <mxPoint x="-33" y="2002.87" as="sourcePoint" />
            <mxPoint x="17" y="1952.87" as="targetPoint" />
          </mxGeometry>
        </mxCell>
        <mxCell id="f4Ga0egmDkygM2l4F1vE-7" value="Choose Create Backup" style="ellipse;whiteSpace=wrap;html=1;fontSize=16;" parent="1" vertex="1">
          <mxGeometry x="343" y="2099.37" width="120" height="80" as="geometry" />
        </mxCell>
        <mxCell id="f4Ga0egmDkygM2l4F1vE-10" value="" style="html=1;points=[[0,0,0,0,5],[0,1,0,0,-5],[1,0,0,0,5],[1,1,0,0,-5]];perimeter=orthogonalPerimeter;outlineConnect=0;targetShapes=umlLifeline;portConstraint=eastwest;newEdgeStyle={&quot;curved&quot;:0,&quot;rounded&quot;:0};fillColor=#000000;rotation=90;" parent="1" vertex="1">
          <mxGeometry x="869.1300000000001" y="1285" width="10" height="1433.75" as="geometry" />
        </mxCell>
        <mxCell id="f4Ga0egmDkygM2l4F1vE-13" value="Enter name" style="ellipse;whiteSpace=wrap;html=1;fontSize=16;" parent="1" vertex="1">
          <mxGeometry x="343" y="2189.37" width="120" height="80" as="geometry" />
        </mxCell>
        <mxCell id="f4Ga0egmDkygM2l4F1vE-14" value="Enter Source path" style="ellipse;whiteSpace=wrap;html=1;fontSize=16;" parent="1" vertex="1">
          <mxGeometry x="343" y="2279.37" width="120" height="80" as="geometry" />
        </mxCell>
        <mxCell id="f4Ga0egmDkygM2l4F1vE-16" value="Enter Destination path" style="ellipse;whiteSpace=wrap;html=1;fontSize=16;" parent="1" vertex="1">
          <mxGeometry x="323" y="2369.37" width="160" height="70" as="geometry" />
        </mxCell>
        <mxCell id="f4Ga0egmDkygM2l4F1vE-99" style="edgeStyle=orthogonalEdgeStyle;rounded=0;orthogonalLoop=1;jettySize=auto;html=1;entryX=0.5;entryY=0;entryDx=0;entryDy=0;" parent="1" source="f4Ga0egmDkygM2l4F1vE-17" target="f4Ga0egmDkygM2l4F1vE-93" edge="1">
          <mxGeometry relative="1" as="geometry" />
        </mxCell>
        <mxCell id="f4Ga0egmDkygM2l4F1vE-17" value="Choose full and differential" style="ellipse;whiteSpace=wrap;html=1;fontSize=16;" parent="1" vertex="1">
          <mxGeometry x="333" y="2459.37" width="140" height="90" as="geometry" />
        </mxCell>
        <mxCell id="f4Ga0egmDkygM2l4F1vE-26" value="" style="endArrow=none;html=1;rounded=0;entryX=0.5;entryY=1;entryDx=0;entryDy=0;" parent="1" target="f4Ga0egmDkygM2l4F1vE-7" edge="1">
          <mxGeometry width="50" height="50" relative="1" as="geometry">
            <mxPoint x="403" y="2189.37" as="sourcePoint" />
            <mxPoint x="333" y="2219.37" as="targetPoint" />
          </mxGeometry>
        </mxCell>
        <mxCell id="f4Ga0egmDkygM2l4F1vE-27" value="" style="endArrow=none;html=1;rounded=0;entryX=0.5;entryY=1;entryDx=0;entryDy=0;" parent="1" target="f4Ga0egmDkygM2l4F1vE-13" edge="1">
          <mxGeometry width="50" height="50" relative="1" as="geometry">
            <mxPoint x="403" y="2279.37" as="sourcePoint" />
            <mxPoint x="413" y="2189.37" as="targetPoint" />
          </mxGeometry>
        </mxCell>
        <mxCell id="f4Ga0egmDkygM2l4F1vE-28" value="" style="endArrow=none;html=1;rounded=0;entryX=0.5;entryY=1;entryDx=0;entryDy=0;exitX=0.5;exitY=0;exitDx=0;exitDy=0;" parent="1" source="f4Ga0egmDkygM2l4F1vE-16" target="f4Ga0egmDkygM2l4F1vE-14" edge="1">
          <mxGeometry width="50" height="50" relative="1" as="geometry">
            <mxPoint x="413" y="2289.37" as="sourcePoint" />
            <mxPoint x="413" y="2279.37" as="targetPoint" />
          </mxGeometry>
        </mxCell>
        <mxCell id="f4Ga0egmDkygM2l4F1vE-29" value="" style="endArrow=none;html=1;rounded=0;entryX=0.5;entryY=1;entryDx=0;entryDy=0;" parent="1" target="f4Ga0egmDkygM2l4F1vE-16" edge="1">
          <mxGeometry width="50" height="50" relative="1" as="geometry">
            <mxPoint x="403" y="2459.37" as="sourcePoint" />
            <mxPoint x="413" y="2369.37" as="targetPoint" />
          </mxGeometry>
        </mxCell>
        <mxCell id="f4Ga0egmDkygM2l4F1vE-48" style="edgeStyle=orthogonalEdgeStyle;rounded=0;orthogonalLoop=1;jettySize=auto;html=1;entryX=0.5;entryY=0;entryDx=0;entryDy=0;exitX=0.5;exitY=1;exitDx=0;exitDy=0;" parent="1" source="f4Ga0egmDkygM2l4F1vE-31" target="f4Ga0egmDkygM2l4F1vE-42" edge="1">
          <mxGeometry relative="1" as="geometry">
            <mxPoint x="663" y="2249.37" as="targetPoint" />
          </mxGeometry>
        </mxCell>
        <mxCell id="f4Ga0egmDkygM2l4F1vE-31" value="Choose List Backup" style="ellipse;whiteSpace=wrap;html=1;fontSize=16;" parent="1" vertex="1">
          <mxGeometry x="608" y="2099.37" width="120" height="80" as="geometry" />
        </mxCell>
        <mxCell id="f4Ga0egmDkygM2l4F1vE-64" style="edgeStyle=orthogonalEdgeStyle;rounded=0;orthogonalLoop=1;jettySize=auto;html=1;entryX=0.5;entryY=0;entryDx=0;entryDy=0;" parent="1" source="f4Ga0egmDkygM2l4F1vE-32" target="f4Ga0egmDkygM2l4F1vE-50" edge="1">
          <mxGeometry relative="1" as="geometry" />
        </mxCell>
        <mxCell id="f4Ga0egmDkygM2l4F1vE-32" value="Choose Run Backup" style="ellipse;whiteSpace=wrap;html=1;fontSize=16;" parent="1" vertex="1">
          <mxGeometry x="943" y="2099.37" width="120" height="80" as="geometry" />
        </mxCell>
        <mxCell id="f4Ga0egmDkygM2l4F1vE-47" style="edgeStyle=orthogonalEdgeStyle;rounded=0;orthogonalLoop=1;jettySize=auto;html=1;" parent="1" source="f4Ga0egmDkygM2l4F1vE-42" edge="1">
          <mxGeometry relative="1" as="geometry">
            <mxPoint x="533" y="2006.87" as="targetPoint" />
          </mxGeometry>
        </mxCell>
        <mxCell id="f4Ga0egmDkygM2l4F1vE-42" value="Press Suppr" style="rhombus;whiteSpace=wrap;html=1;fontSize=18;" parent="1" vertex="1">
          <mxGeometry x="603" y="2249.37" width="130" height="120" as="geometry" />
        </mxCell>
        <mxCell id="f4Ga0egmDkygM2l4F1vE-43" value="" style="endArrow=classic;html=1;rounded=0;entryX=1;entryY=0.5;entryDx=0;entryDy=0;exitX=0.5;exitY=1;exitDx=0;exitDy=0;" parent="1" source="f4Ga0egmDkygM2l4F1vE-42" target="f4Ga0egmDkygM2l4F1vE-42" edge="1">
          <mxGeometry width="50" height="50" relative="1" as="geometry">
            <mxPoint x="668" y="2429.37" as="sourcePoint" />
            <mxPoint x="818" y="2279.37" as="targetPoint" />
            <Array as="points">
              <mxPoint x="668" y="2389.37" />
              <mxPoint x="788" y="2389.37" />
              <mxPoint x="788" y="2309.37" />
            </Array>
          </mxGeometry>
        </mxCell>
        <mxCell id="f4Ga0egmDkygM2l4F1vE-44" value="Yes" style="text;html=1;align=center;verticalAlign=middle;whiteSpace=wrap;rounded=0;fontSize=20;" parent="1" vertex="1">
          <mxGeometry x="538" y="2279.37" width="60" height="30" as="geometry" />
        </mxCell>
        <mxCell id="f4Ga0egmDkygM2l4F1vE-45" value="No" style="text;html=1;align=center;verticalAlign=middle;whiteSpace=wrap;rounded=0;fontSize=20;" parent="1" vertex="1">
          <mxGeometry x="708" y="2339.37" width="60" height="30" as="geometry" />
        </mxCell>
        <mxCell id="f4Ga0egmDkygM2l4F1vE-63" style="edgeStyle=orthogonalEdgeStyle;rounded=0;orthogonalLoop=1;jettySize=auto;html=1;" parent="1" source="f4Ga0egmDkygM2l4F1vE-50" edge="1">
          <mxGeometry relative="1" as="geometry">
            <mxPoint x="1003" y="2369.37" as="targetPoint" />
          </mxGeometry>
        </mxCell>
        <mxCell id="f4Ga0egmDkygM2l4F1vE-50" value="Select 1 or more backup" style="ellipse;whiteSpace=wrap;html=1;fontSize=17;" parent="1" vertex="1">
          <mxGeometry x="943" y="2229.37" width="120" height="80" as="geometry" />
        </mxCell>
        <mxCell id="f4Ga0egmDkygM2l4F1vE-85" style="edgeStyle=orthogonalEdgeStyle;rounded=0;orthogonalLoop=1;jettySize=auto;html=1;entryX=1;entryY=0.589;entryDx=0;entryDy=0;entryPerimeter=0;" parent="1" source="f4Ga0egmDkygM2l4F1vE-52" target="f4Ga0egmDkygM2l4F1vE-10" edge="1">
          <mxGeometry relative="1" as="geometry">
            <mxPoint x="823" y="2079.37" as="targetPoint" />
            <Array as="points">
              <mxPoint x="820" y="2704.87" />
            </Array>
          </mxGeometry>
        </mxCell>
        <mxCell id="f4Ga0egmDkygM2l4F1vE-52" value="Press Suppr" style="rhombus;whiteSpace=wrap;html=1;fontSize=18;" parent="1" vertex="1">
          <mxGeometry x="938" y="2644.37" width="130" height="120" as="geometry" />
        </mxCell>
        <mxCell id="f4Ga0egmDkygM2l4F1vE-53" value="" style="endArrow=classic;html=1;rounded=0;entryX=1;entryY=0.5;entryDx=0;entryDy=0;exitX=0.5;exitY=1;exitDx=0;exitDy=0;" parent="1" source="f4Ga0egmDkygM2l4F1vE-52" target="f4Ga0egmDkygM2l4F1vE-52" edge="1">
          <mxGeometry width="50" height="50" relative="1" as="geometry">
            <mxPoint x="1003" y="2824.37" as="sourcePoint" />
            <mxPoint x="1153" y="2674.37" as="targetPoint" />
            <Array as="points">
              <mxPoint x="1003" y="2784.37" />
              <mxPoint x="1123" y="2784.37" />
              <mxPoint x="1123" y="2704.37" />
            </Array>
          </mxGeometry>
        </mxCell>
        <mxCell id="f4Ga0egmDkygM2l4F1vE-54" value="Yes" style="text;html=1;align=center;verticalAlign=middle;whiteSpace=wrap;rounded=0;fontSize=20;" parent="1" vertex="1">
          <mxGeometry x="873" y="2674.37" width="60" height="30" as="geometry" />
        </mxCell>
        <mxCell id="f4Ga0egmDkygM2l4F1vE-55" value="No" style="text;html=1;align=center;verticalAlign=middle;whiteSpace=wrap;rounded=0;fontSize=20;" parent="1" vertex="1">
          <mxGeometry x="1043" y="2734.37" width="60" height="30" as="geometry" />
        </mxCell>
        <mxCell id="f4Ga0egmDkygM2l4F1vE-57" style="edgeStyle=orthogonalEdgeStyle;rounded=0;orthogonalLoop=1;jettySize=auto;html=1;" parent="1" source="f4Ga0egmDkygM2l4F1vE-56" edge="1">
          <mxGeometry relative="1" as="geometry">
            <mxPoint x="1093" y="2499.37" as="targetPoint" />
          </mxGeometry>
        </mxCell>
        <mxCell id="f4Ga0egmDkygM2l4F1vE-58" style="edgeStyle=orthogonalEdgeStyle;rounded=0;orthogonalLoop=1;jettySize=auto;html=1;" parent="1" source="f4Ga0egmDkygM2l4F1vE-56" edge="1">
          <mxGeometry relative="1" as="geometry">
            <mxPoint x="913" y="2499.37" as="targetPoint" />
          </mxGeometry>
        </mxCell>
        <mxCell id="f4Ga0egmDkygM2l4F1vE-56" value="Backup succes" style="rhombus;whiteSpace=wrap;html=1;fontSize=18;" parent="1" vertex="1">
          <mxGeometry x="943" y="2369.37" width="120" height="110" as="geometry" />
        </mxCell>
        <mxCell id="f4Ga0egmDkygM2l4F1vE-61" style="edgeStyle=orthogonalEdgeStyle;rounded=0;orthogonalLoop=1;jettySize=auto;html=1;entryX=0.5;entryY=0;entryDx=0;entryDy=0;" parent="1" source="f4Ga0egmDkygM2l4F1vE-59" target="f4Ga0egmDkygM2l4F1vE-52" edge="1">
          <mxGeometry relative="1" as="geometry" />
        </mxCell>
        <mxCell id="f4Ga0egmDkygM2l4F1vE-59" value="Backup failed" style="ellipse;whiteSpace=wrap;html=1;fontSize=17;" parent="1" vertex="1">
          <mxGeometry x="853" y="2499.37" width="120" height="80" as="geometry" />
        </mxCell>
        <mxCell id="f4Ga0egmDkygM2l4F1vE-62" style="edgeStyle=orthogonalEdgeStyle;rounded=0;orthogonalLoop=1;jettySize=auto;html=1;entryX=0.5;entryY=0;entryDx=0;entryDy=0;" parent="1" source="f4Ga0egmDkygM2l4F1vE-60" target="f4Ga0egmDkygM2l4F1vE-52" edge="1">
          <mxGeometry relative="1" as="geometry" />
        </mxCell>
        <mxCell id="f4Ga0egmDkygM2l4F1vE-60" value="Backup sucessfel" style="ellipse;whiteSpace=wrap;html=1;fontSize=17;" parent="1" vertex="1">
          <mxGeometry x="1033" y="2499.37" width="120" height="80" as="geometry" />
        </mxCell>
        <mxCell id="f4Ga0egmDkygM2l4F1vE-69" style="edgeStyle=orthogonalEdgeStyle;rounded=0;orthogonalLoop=1;jettySize=auto;html=1;entryX=0.5;entryY=0;entryDx=0;entryDy=0;" parent="1" source="f4Ga0egmDkygM2l4F1vE-70" target="f4Ga0egmDkygM2l4F1vE-72" edge="1">
          <mxGeometry relative="1" as="geometry" />
        </mxCell>
        <mxCell id="f4Ga0egmDkygM2l4F1vE-70" value="Choose Backup to delete" style="ellipse;whiteSpace=wrap;html=1;fontSize=16;" parent="1" vertex="1">
          <mxGeometry x="1283" y="2099.37" width="120" height="80" as="geometry" />
        </mxCell>
        <mxCell id="f4Ga0egmDkygM2l4F1vE-71" style="edgeStyle=orthogonalEdgeStyle;rounded=0;orthogonalLoop=1;jettySize=auto;html=1;" parent="1" source="f4Ga0egmDkygM2l4F1vE-72" edge="1">
          <mxGeometry relative="1" as="geometry">
            <mxPoint x="1343" y="2369.37" as="targetPoint" />
          </mxGeometry>
        </mxCell>
        <mxCell id="f4Ga0egmDkygM2l4F1vE-72" value="Select 1 or more backup" style="ellipse;whiteSpace=wrap;html=1;fontSize=17;" parent="1" vertex="1">
          <mxGeometry x="1283" y="2229.37" width="120" height="80" as="geometry" />
        </mxCell>
        <mxCell id="f4Ga0egmDkygM2l4F1vE-86" style="edgeStyle=orthogonalEdgeStyle;rounded=0;orthogonalLoop=1;jettySize=auto;html=1;" parent="1" source="f4Ga0egmDkygM2l4F1vE-73" edge="1">
          <mxGeometry relative="1" as="geometry">
            <mxPoint x="1160" y="2006.87" as="targetPoint" />
          </mxGeometry>
        </mxCell>
        <mxCell id="f4Ga0egmDkygM2l4F1vE-73" value="Press Suppr" style="rhombus;whiteSpace=wrap;html=1;fontSize=18;" parent="1" vertex="1">
          <mxGeometry x="1278" y="2644.37" width="130" height="120" as="geometry" />
        </mxCell>
        <mxCell id="f4Ga0egmDkygM2l4F1vE-74" value="" style="endArrow=classic;html=1;rounded=0;entryX=1;entryY=0.5;entryDx=0;entryDy=0;exitX=0.5;exitY=1;exitDx=0;exitDy=0;" parent="1" source="f4Ga0egmDkygM2l4F1vE-73" target="f4Ga0egmDkygM2l4F1vE-73" edge="1">
          <mxGeometry width="50" height="50" relative="1" as="geometry">
            <mxPoint x="1343" y="2824.37" as="sourcePoint" />
            <mxPoint x="1493" y="2674.37" as="targetPoint" />
            <Array as="points">
              <mxPoint x="1343" y="2784.37" />
              <mxPoint x="1463" y="2784.37" />
              <mxPoint x="1463" y="2704.37" />
            </Array>
          </mxGeometry>
        </mxCell>
        <mxCell id="f4Ga0egmDkygM2l4F1vE-75" value="Yes" style="text;html=1;align=center;verticalAlign=middle;whiteSpace=wrap;rounded=0;fontSize=20;" parent="1" vertex="1">
          <mxGeometry x="1213" y="2674.37" width="60" height="30" as="geometry" />
        </mxCell>
        <mxCell id="f4Ga0egmDkygM2l4F1vE-76" value="No" style="text;html=1;align=center;verticalAlign=middle;whiteSpace=wrap;rounded=0;fontSize=20;" parent="1" vertex="1">
          <mxGeometry x="1383" y="2734.37" width="60" height="30" as="geometry" />
        </mxCell>
        <mxCell id="f4Ga0egmDkygM2l4F1vE-77" style="edgeStyle=orthogonalEdgeStyle;rounded=0;orthogonalLoop=1;jettySize=auto;html=1;" parent="1" source="f4Ga0egmDkygM2l4F1vE-79" edge="1">
          <mxGeometry relative="1" as="geometry">
            <mxPoint x="1433" y="2499.37" as="targetPoint" />
          </mxGeometry>
        </mxCell>
        <mxCell id="f4Ga0egmDkygM2l4F1vE-78" style="edgeStyle=orthogonalEdgeStyle;rounded=0;orthogonalLoop=1;jettySize=auto;html=1;" parent="1" source="f4Ga0egmDkygM2l4F1vE-79" edge="1">
          <mxGeometry relative="1" as="geometry">
            <mxPoint x="1253" y="2499.37" as="targetPoint" />
          </mxGeometry>
        </mxCell>
        <mxCell id="f4Ga0egmDkygM2l4F1vE-79" value="Backup succes" style="rhombus;whiteSpace=wrap;html=1;fontSize=18;" parent="1" vertex="1">
          <mxGeometry x="1283" y="2369.37" width="120" height="110" as="geometry" />
        </mxCell>
        <mxCell id="f4Ga0egmDkygM2l4F1vE-80" style="edgeStyle=orthogonalEdgeStyle;rounded=0;orthogonalLoop=1;jettySize=auto;html=1;entryX=0.5;entryY=0;entryDx=0;entryDy=0;" parent="1" source="f4Ga0egmDkygM2l4F1vE-81" target="f4Ga0egmDkygM2l4F1vE-73" edge="1">
          <mxGeometry relative="1" as="geometry" />
        </mxCell>
        <mxCell id="f4Ga0egmDkygM2l4F1vE-81" value="Backup failed" style="ellipse;whiteSpace=wrap;html=1;fontSize=17;" parent="1" vertex="1">
          <mxGeometry x="1193" y="2499.37" width="120" height="80" as="geometry" />
        </mxCell>
        <mxCell id="f4Ga0egmDkygM2l4F1vE-82" style="edgeStyle=orthogonalEdgeStyle;rounded=0;orthogonalLoop=1;jettySize=auto;html=1;entryX=0.5;entryY=0;entryDx=0;entryDy=0;" parent="1" source="f4Ga0egmDkygM2l4F1vE-83" target="f4Ga0egmDkygM2l4F1vE-73" edge="1">
          <mxGeometry relative="1" as="geometry" />
        </mxCell>
        <mxCell id="f4Ga0egmDkygM2l4F1vE-83" value="Delete Backup sucessful" style="ellipse;whiteSpace=wrap;html=1;fontSize=17;" parent="1" vertex="1">
          <mxGeometry x="1373" y="2499.37" width="120" height="80" as="geometry" />
        </mxCell>
        <mxCell id="f4Ga0egmDkygM2l4F1vE-100" style="edgeStyle=orthogonalEdgeStyle;rounded=0;orthogonalLoop=1;jettySize=auto;html=1;" parent="1" source="f4Ga0egmDkygM2l4F1vE-87" edge="1">
          <mxGeometry relative="1" as="geometry">
            <mxPoint x="200" y="2006.87" as="targetPoint" />
            <Array as="points">
              <mxPoint x="201" y="2934.87" />
              <mxPoint x="201" y="2006.87" />
            </Array>
          </mxGeometry>
        </mxCell>
        <mxCell id="f4Ga0egmDkygM2l4F1vE-87" value="Press Suppr" style="rhombus;whiteSpace=wrap;html=1;fontSize=18;" parent="1" vertex="1">
          <mxGeometry x="338" y="2874.37" width="130" height="120" as="geometry" />
        </mxCell>
        <mxCell id="f4Ga0egmDkygM2l4F1vE-88" value="" style="endArrow=classic;html=1;rounded=0;entryX=1;entryY=0.5;entryDx=0;entryDy=0;exitX=0.5;exitY=1;exitDx=0;exitDy=0;" parent="1" source="f4Ga0egmDkygM2l4F1vE-87" target="f4Ga0egmDkygM2l4F1vE-87" edge="1">
          <mxGeometry width="50" height="50" relative="1" as="geometry">
            <mxPoint x="403" y="3054.37" as="sourcePoint" />
            <mxPoint x="553" y="2904.37" as="targetPoint" />
            <Array as="points">
              <mxPoint x="403" y="3014.37" />
              <mxPoint x="523" y="3014.37" />
              <mxPoint x="523" y="2934.37" />
            </Array>
          </mxGeometry>
        </mxCell>
        <mxCell id="f4Ga0egmDkygM2l4F1vE-89" value="Yes" style="text;html=1;align=center;verticalAlign=middle;whiteSpace=wrap;rounded=0;fontSize=20;" parent="1" vertex="1">
          <mxGeometry x="278" y="2889.37" width="60" height="30" as="geometry" />
        </mxCell>
        <mxCell id="f4Ga0egmDkygM2l4F1vE-90" value="No" style="text;html=1;align=center;verticalAlign=middle;whiteSpace=wrap;rounded=0;fontSize=20;" parent="1" vertex="1">
          <mxGeometry x="443" y="2964.37" width="60" height="30" as="geometry" />
        </mxCell>
        <mxCell id="f4Ga0egmDkygM2l4F1vE-91" style="edgeStyle=orthogonalEdgeStyle;rounded=0;orthogonalLoop=1;jettySize=auto;html=1;" parent="1" source="f4Ga0egmDkygM2l4F1vE-93" edge="1">
          <mxGeometry relative="1" as="geometry">
            <mxPoint x="493" y="2729.37" as="targetPoint" />
          </mxGeometry>
        </mxCell>
        <mxCell id="f4Ga0egmDkygM2l4F1vE-92" style="edgeStyle=orthogonalEdgeStyle;rounded=0;orthogonalLoop=1;jettySize=auto;html=1;" parent="1" source="f4Ga0egmDkygM2l4F1vE-93" edge="1">
          <mxGeometry relative="1" as="geometry">
            <mxPoint x="313" y="2729.37" as="targetPoint" />
          </mxGeometry>
        </mxCell>
        <mxCell id="f4Ga0egmDkygM2l4F1vE-93" value="Backup succes" style="rhombus;whiteSpace=wrap;html=1;fontSize=18;" parent="1" vertex="1">
          <mxGeometry x="343" y="2599.37" width="120" height="110" as="geometry" />
        </mxCell>
        <mxCell id="f4Ga0egmDkygM2l4F1vE-94" style="edgeStyle=orthogonalEdgeStyle;rounded=0;orthogonalLoop=1;jettySize=auto;html=1;entryX=0.5;entryY=0;entryDx=0;entryDy=0;" parent="1" source="f4Ga0egmDkygM2l4F1vE-95" target="f4Ga0egmDkygM2l4F1vE-87" edge="1">
          <mxGeometry relative="1" as="geometry" />
        </mxCell>
        <mxCell id="f4Ga0egmDkygM2l4F1vE-95" value="Backup failed" style="ellipse;whiteSpace=wrap;html=1;fontSize=17;" parent="1" vertex="1">
          <mxGeometry x="253" y="2729.37" width="120" height="80" as="geometry" />
        </mxCell>
        <mxCell id="f4Ga0egmDkygM2l4F1vE-96" style="edgeStyle=orthogonalEdgeStyle;rounded=0;orthogonalLoop=1;jettySize=auto;html=1;entryX=0.5;entryY=0;entryDx=0;entryDy=0;" parent="1" source="f4Ga0egmDkygM2l4F1vE-97" target="f4Ga0egmDkygM2l4F1vE-87" edge="1">
          <mxGeometry relative="1" as="geometry" />
        </mxCell>
        <mxCell id="f4Ga0egmDkygM2l4F1vE-97" value="Backup Create" style="ellipse;whiteSpace=wrap;html=1;fontSize=17;" parent="1" vertex="1">
          <mxGeometry x="433" y="2729.37" width="120" height="80" as="geometry" />
        </mxCell>
        <mxCell id="f4Ga0egmDkygM2l4F1vE-101" value="Yes" style="text;html=1;align=center;verticalAlign=middle;whiteSpace=wrap;rounded=0;fontSize=20;" parent="1" vertex="1">
          <mxGeometry x="453" y="2614.37" width="60" height="30" as="geometry" />
        </mxCell>
        <mxCell id="f4Ga0egmDkygM2l4F1vE-102" value="Yes" style="text;html=1;align=center;verticalAlign=middle;whiteSpace=wrap;rounded=0;fontSize=20;" parent="1" vertex="1">
          <mxGeometry x="1053" y="2379.37" width="60" height="30" as="geometry" />
        </mxCell>
        <mxCell id="f4Ga0egmDkygM2l4F1vE-103" value="Yes" style="text;html=1;align=center;verticalAlign=middle;whiteSpace=wrap;rounded=0;fontSize=20;" parent="1" vertex="1">
          <mxGeometry x="1393" y="2379.37" width="60" height="30" as="geometry" />
        </mxCell>
        <mxCell id="f4Ga0egmDkygM2l4F1vE-104" value="No" style="text;html=1;align=center;verticalAlign=middle;whiteSpace=wrap;rounded=0;fontSize=20;" parent="1" vertex="1">
          <mxGeometry x="1243" y="2369.37" width="60" height="30" as="geometry" />
        </mxCell>
        <mxCell id="f4Ga0egmDkygM2l4F1vE-105" value="No" style="text;html=1;align=center;verticalAlign=middle;whiteSpace=wrap;rounded=0;fontSize=20;" parent="1" vertex="1">
          <mxGeometry x="893" y="2369.37" width="60" height="30" as="geometry" />
        </mxCell>
        <mxCell id="f4Ga0egmDkygM2l4F1vE-106" value="No" style="text;html=1;align=center;verticalAlign=middle;whiteSpace=wrap;rounded=0;fontSize=20;" parent="1" vertex="1">
          <mxGeometry x="303" y="2609.37" width="60" height="30" as="geometry" />
        </mxCell>
        <mxCell id="f4Ga0egmDkygM2l4F1vE-107" value="Choose Exit" style="ellipse;whiteSpace=wrap;html=1;fontSize=16;" parent="1" vertex="1">
          <mxGeometry x="1453" y="2099.37" width="120" height="80" as="geometry" />
        </mxCell>
        <mxCell id="f4Ga0egmDkygM2l4F1vE-108" value="" style="ellipse;whiteSpace=wrap;html=1;aspect=fixed;fillColor=#000000;" parent="1" vertex="1">
          <mxGeometry x="1498" y="2266.87" width="30" height="30" as="geometry" />
        </mxCell>
        <mxCell id="f4Ga0egmDkygM2l4F1vE-109" value="" style="endArrow=none;html=1;rounded=0;entryX=0.5;entryY=1;entryDx=0;entryDy=0;exitX=0.5;exitY=0;exitDx=0;exitDy=0;" parent="1" source="f4Ga0egmDkygM2l4F1vE-108" target="f4Ga0egmDkygM2l4F1vE-107" edge="1">
          <mxGeometry width="50" height="50" relative="1" as="geometry">
            <mxPoint x="728" y="1886.87" as="sourcePoint" />
            <mxPoint x="631" y="1781.87" as="targetPoint" />
          </mxGeometry>
        </mxCell>
        <mxCell id="f4Ga0egmDkygM2l4F1vE-111" value="" style="endArrow=classic;html=1;rounded=0;exitX=0.5;exitY=1;exitDx=0;exitDy=0;" parent="1" source="f4Ga0egmDkygM2l4F1vE-2" target="f4Ga0egmDkygM2l4F1vE-10" edge="1">
          <mxGeometry width="50" height="50" relative="1" as="geometry">
            <mxPoint x="570" y="1906.87" as="sourcePoint" />
            <mxPoint x="840" y="1996.87" as="targetPoint" />
          </mxGeometry>
        </mxCell>
        <mxCell id="f4Ga0egmDkygM2l4F1vE-112" value="" style="endArrow=classic;html=1;rounded=0;entryX=0.5;entryY=0;entryDx=0;entryDy=0;" parent="1" target="f4Ga0egmDkygM2l4F1vE-7" edge="1">
          <mxGeometry width="50" height="50" relative="1" as="geometry">
            <mxPoint x="403" y="2006.87" as="sourcePoint" />
            <mxPoint x="370" y="2076.87" as="targetPoint" />
          </mxGeometry>
        </mxCell>
        <mxCell id="f4Ga0egmDkygM2l4F1vE-113" value="" style="endArrow=classic;html=1;rounded=0;entryX=0.5;entryY=0;entryDx=0;entryDy=0;" parent="1" edge="1">
          <mxGeometry width="50" height="50" relative="1" as="geometry">
            <mxPoint x="667.71" y="2006.37" as="sourcePoint" />
            <mxPoint x="667.71" y="2099.37" as="targetPoint" />
          </mxGeometry>
        </mxCell>
        <mxCell id="f4Ga0egmDkygM2l4F1vE-114" value="" style="endArrow=classic;html=1;rounded=0;entryX=0.5;entryY=0;entryDx=0;entryDy=0;" parent="1" edge="1">
          <mxGeometry width="50" height="50" relative="1" as="geometry">
            <mxPoint x="1342.71" y="2006.37" as="sourcePoint" />
            <mxPoint x="1342.71" y="2099.37" as="targetPoint" />
          </mxGeometry>
        </mxCell>
        <mxCell id="f4Ga0egmDkygM2l4F1vE-115" value="" style="endArrow=classic;html=1;rounded=0;entryX=0.5;entryY=0;entryDx=0;entryDy=0;" parent="1" edge="1">
          <mxGeometry width="50" height="50" relative="1" as="geometry">
            <mxPoint x="1002.71" y="2006.37" as="sourcePoint" />
            <mxPoint x="1002.71" y="2099.37" as="targetPoint" />
          </mxGeometry>
        </mxCell>
        <mxCell id="f4Ga0egmDkygM2l4F1vE-116" value="" style="endArrow=classic;html=1;rounded=0;entryX=0.5;entryY=0;entryDx=0;entryDy=0;" parent="1" edge="1">
          <mxGeometry width="50" height="50" relative="1" as="geometry">
            <mxPoint x="1512.71" y="2006.37" as="sourcePoint" />
            <mxPoint x="1512.71" y="2099.37" as="targetPoint" />
          </mxGeometry>
        </mxCell>
        <mxCell id="YuR1K-Is_MYV1LeaTMjd-2" value="" style="ellipse;whiteSpace=wrap;html=1;labelBackgroundColor=none;fillColor=#dae8fc;strokeColor=#6c8ebf;" vertex="1" parent="1">
          <mxGeometry x="1520" y="660" width="320" height="135" as="geometry" />
        </mxCell>
        <mxCell id="YuR1K-Is_MYV1LeaTMjd-3" value="SÃ©quence:" style="text;html=1;align=center;verticalAlign=middle;whiteSpace=wrap;rounded=0;fontSize=50;fontColor=#3399FF;fontStyle=5" vertex="1" parent="1">
          <mxGeometry x="1530" y="710" width="310" height="30" as="geometry" />
        </mxCell>
        <mxCell id="YuR1K-Is_MYV1LeaTMjd-4" value="Program (main)" style="shape=umlLifeline;perimeter=lifelinePerimeter;whiteSpace=wrap;html=1;container=0;dropTarget=0;collapsible=0;recursiveResize=0;outlineConnect=0;portConstraint=eastwest;newEdgeStyle={&quot;edgeStyle&quot;:&quot;elbowEdgeStyle&quot;,&quot;elbow&quot;:&quot;vertical&quot;,&quot;curved&quot;:0,&quot;rounded&quot;:0};" vertex="1" parent="1">
          <mxGeometry x="2050" y="760" width="100" height="480" as="geometry" />
        </mxCell>
        <mxCell id="YuR1K-Is_MYV1LeaTMjd-5" value="" style="html=1;points=[];perimeter=orthogonalPerimeter;outlineConnect=0;targetShapes=umlLifeline;portConstraint=eastwest;newEdgeStyle={&quot;edgeStyle&quot;:&quot;elbowEdgeStyle&quot;,&quot;elbow&quot;:&quot;vertical&quot;,&quot;curved&quot;:0,&quot;rounded&quot;:0};" vertex="1" parent="YuR1K-Is_MYV1LeaTMjd-4">
          <mxGeometry x="45" y="80" width="10" height="360" as="geometry" />
        </mxCell>
        <mxCell id="YuR1K-Is_MYV1LeaTMjd-6" value="BackupViewModel" style="shape=umlLifeline;perimeter=lifelinePerimeter;whiteSpace=wrap;html=1;container=0;dropTarget=0;collapsible=0;recursiveResize=0;outlineConnect=0;portConstraint=eastwest;newEdgeStyle={&quot;edgeStyle&quot;:&quot;elbowEdgeStyle&quot;,&quot;elbow&quot;:&quot;vertical&quot;,&quot;curved&quot;:0,&quot;rounded&quot;:0};" vertex="1" parent="1">
          <mxGeometry x="2230" y="760" width="100" height="480" as="geometry" />
        </mxCell>
        <mxCell id="YuR1K-Is_MYV1LeaTMjd-7" value="" style="html=1;points=[];perimeter=orthogonalPerimeter;outlineConnect=0;targetShapes=umlLifeline;portConstraint=eastwest;newEdgeStyle={&quot;edgeStyle&quot;:&quot;elbowEdgeStyle&quot;,&quot;elbow&quot;:&quot;vertical&quot;,&quot;curved&quot;:0,&quot;rounded&quot;:0};" vertex="1" parent="YuR1K-Is_MYV1LeaTMjd-6">
          <mxGeometry x="45" y="150" width="10" height="70" as="geometry" />
        </mxCell>
        <mxCell id="YuR1K-Is_MYV1LeaTMjd-8" value="BackupModel" style="shape=umlLifeline;perimeter=lifelinePerimeter;whiteSpace=wrap;html=1;container=0;dropTarget=0;collapsible=0;recursiveResize=0;outlineConnect=0;portConstraint=eastwest;newEdgeStyle={&quot;edgeStyle&quot;:&quot;elbowEdgeStyle&quot;,&quot;elbow&quot;:&quot;vertical&quot;,&quot;curved&quot;:0,&quot;rounded&quot;:0};" vertex="1" parent="1">
          <mxGeometry x="2390" y="760" width="100" height="480" as="geometry" />
        </mxCell>
        <mxCell id="YuR1K-Is_MYV1LeaTMjd-9" value="" style="html=1;points=[];perimeter=orthogonalPerimeter;outlineConnect=0;targetShapes=umlLifeline;portConstraint=eastwest;newEdgeStyle={&quot;edgeStyle&quot;:&quot;elbowEdgeStyle&quot;,&quot;elbow&quot;:&quot;vertical&quot;,&quot;curved&quot;:0,&quot;rounded&quot;:0};" vertex="1" parent="YuR1K-Is_MYV1LeaTMjd-8">
          <mxGeometry x="45" y="290" width="10" height="20" as="geometry" />
        </mxCell>
        <mxCell id="YuR1K-Is_MYV1LeaTMjd-10" value="DailyLogService" style="shape=umlLifeline;perimeter=lifelinePerimeter;whiteSpace=wrap;html=1;container=0;dropTarget=0;collapsible=0;recursiveResize=0;outlineConnect=0;portConstraint=eastwest;newEdgeStyle={&quot;edgeStyle&quot;:&quot;elbowEdgeStyle&quot;,&quot;elbow&quot;:&quot;vertical&quot;,&quot;curved&quot;:0,&quot;rounded&quot;:0};" vertex="1" parent="1">
          <mxGeometry x="2550" y="760" width="100" height="480" as="geometry" />
        </mxCell>
        <mxCell id="YuR1K-Is_MYV1LeaTMjd-11" value="" style="html=1;points=[];perimeter=orthogonalPerimeter;outlineConnect=0;targetShapes=umlLifeline;portConstraint=eastwest;newEdgeStyle={&quot;edgeStyle&quot;:&quot;elbowEdgeStyle&quot;,&quot;elbow&quot;:&quot;vertical&quot;,&quot;curved&quot;:0,&quot;rounded&quot;:0};" vertex="1" parent="YuR1K-Is_MYV1LeaTMjd-10">
          <mxGeometry x="45" y="80" width="10" height="150" as="geometry" />
        </mxCell>
        <mxCell id="YuR1K-Is_MYV1LeaTMjd-12" value="StateService" style="shape=umlLifeline;perimeter=lifelinePerimeter;whiteSpace=wrap;html=1;container=0;dropTarget=0;collapsible=0;recursiveResize=0;outlineConnect=0;portConstraint=eastwest;newEdgeStyle={&quot;edgeStyle&quot;:&quot;elbowEdgeStyle&quot;,&quot;elbow&quot;:&quot;vertical&quot;,&quot;curved&quot;:0,&quot;rounded&quot;:0};" vertex="1" parent="1">
          <mxGeometry x="2700" y="760" width="100" height="480" as="geometry" />
        </mxCell>
        <mxCell id="YuR1K-Is_MYV1LeaTMjd-13" value="" style="html=1;points=[];perimeter=orthogonalPerimeter;outlineConnect=0;targetShapes=umlLifeline;portConstraint=eastwest;newEdgeStyle={&quot;edgeStyle&quot;:&quot;elbowEdgeStyle&quot;,&quot;elbow&quot;:&quot;vertical&quot;,&quot;curved&quot;:0,&quot;rounded&quot;:0};" vertex="1" parent="YuR1K-Is_MYV1LeaTMjd-12">
          <mxGeometry x="45" y="80" width="10" height="160" as="geometry" />
        </mxCell>
        <mxCell id="YuR1K-Is_MYV1LeaTMjd-14" value="" style="shape=umlLifeline;perimeter=lifelinePerimeter;whiteSpace=wrap;html=1;container=1;dropTarget=0;collapsible=0;recursiveResize=0;outlineConnect=0;portConstraint=eastwest;newEdgeStyle={&quot;curved&quot;:0,&quot;rounded&quot;:0};participant=umlActor;" vertex="1" parent="1">
          <mxGeometry x="1900" y="760" width="20" height="480" as="geometry" />
        </mxCell>
        <mxCell id="YuR1K-Is_MYV1LeaTMjd-15" value="DisplayCreateBackup" style="html=1;verticalAlign=bottom;endArrow=block;curved=0;rounded=0;" edge="1" parent="1" target="YuR1K-Is_MYV1LeaTMjd-5">
          <mxGeometry width="80" relative="1" as="geometry">
            <mxPoint x="1910" y="880" as="sourcePoint" />
            <mxPoint x="1990" y="880" as="targetPoint" />
          </mxGeometry>
        </mxCell>
        <mxCell id="YuR1K-Is_MYV1LeaTMjd-16" value="CreateBackup" style="html=1;verticalAlign=bottom;endArrow=block;curved=0;rounded=0;" edge="1" parent="1">
          <mxGeometry x="-0.0029" width="80" relative="1" as="geometry">
            <mxPoint x="2105" y="910" as="sourcePoint" />
            <mxPoint x="2279.5" y="910" as="targetPoint" />
            <mxPoint as="offset" />
          </mxGeometry>
        </mxCell>
        <mxCell id="YuR1K-Is_MYV1LeaTMjd-17" value="alt" style="shape=umlFrame;whiteSpace=wrap;html=1;pointerEvents=0;" vertex="1" parent="1">
          <mxGeometry x="1930" y="890" width="890" height="310" as="geometry" />
        </mxCell>
        <mxCell id="YuR1K-Is_MYV1LeaTMjd-18" value="newBackupModel" style="html=1;verticalAlign=bottom;endArrow=block;curved=0;rounded=0;" edge="1" parent="1">
          <mxGeometry y="10" width="80" relative="1" as="geometry">
            <mxPoint x="2285" y="1050" as="sourcePoint" />
            <mxPoint x="2435" y="1050" as="targetPoint" />
            <mxPoint as="offset" />
          </mxGeometry>
        </mxCell>
        <mxCell id="YuR1K-Is_MYV1LeaTMjd-19" value="" style="line;strokeWidth=1;fillColor=none;align=left;verticalAlign=middle;spacingTop=-1;spacingLeft=3;spacingRight=3;rotatable=0;labelPosition=right;points=[];portConstraint=eastwest;strokeColor=inherit;" vertex="1" parent="1">
          <mxGeometry x="1930" y="1016" width="890" height="8" as="geometry" />
        </mxCell>
        <mxCell id="YuR1K-Is_MYV1LeaTMjd-20" value="[job already exist]" style="text;html=1;align=center;verticalAlign=middle;whiteSpace=wrap;rounded=0;" vertex="1" parent="1">
          <mxGeometry x="1960" y="920" width="130" height="30" as="geometry" />
        </mxCell>
        <mxCell id="YuR1K-Is_MYV1LeaTMjd-21" value="Job already exist" style="html=1;verticalAlign=bottom;endArrow=open;dashed=1;endSize=8;curved=0;rounded=0;" edge="1" parent="1" target="YuR1K-Is_MYV1LeaTMjd-5">
          <mxGeometry x="-0.0303" y="-10" relative="1" as="geometry">
            <mxPoint x="2270" y="980" as="sourcePoint" />
            <mxPoint x="2190" y="980" as="targetPoint" />
            <mxPoint as="offset" />
          </mxGeometry>
        </mxCell>
        <mxCell id="YuR1K-Is_MYV1LeaTMjd-22" value="[job didn&#39;t exist yet]" style="text;html=1;align=center;verticalAlign=middle;whiteSpace=wrap;rounded=0;" vertex="1" parent="1">
          <mxGeometry x="1940" y="1024" width="130" height="30" as="geometry" />
        </mxCell>
        <mxCell id="YuR1K-Is_MYV1LeaTMjd-23" value="Instance BackupModel" style="html=1;verticalAlign=bottom;endArrow=open;dashed=1;endSize=8;curved=0;rounded=0;" edge="1" parent="1">
          <mxGeometry x="-0.0345" relative="1" as="geometry">
            <mxPoint x="2430" y="1070" as="sourcePoint" />
            <mxPoint x="2285" y="1070" as="targetPoint" />
            <mxPoint as="offset" />
          </mxGeometry>
        </mxCell>
        <mxCell id="YuR1K-Is_MYV1LeaTMjd-24" value="Backup job created" style="html=1;verticalAlign=bottom;endArrow=open;dashed=1;endSize=8;curved=0;rounded=0;" edge="1" parent="1">
          <mxGeometry y="-10" relative="1" as="geometry">
            <mxPoint x="2275" y="1080" as="sourcePoint" />
            <mxPoint x="2105" y="1080" as="targetPoint" />
            <mxPoint as="offset" />
          </mxGeometry>
        </mxCell>
        <mxCell id="YuR1K-Is_MYV1LeaTMjd-25" value="new DailyLogService" style="html=1;verticalAlign=bottom;endArrow=block;curved=0;rounded=0;" edge="1" parent="1" target="YuR1K-Is_MYV1LeaTMjd-10">
          <mxGeometry x="0.7984" width="80" relative="1" as="geometry">
            <mxPoint x="1910" y="840" as="sourcePoint" />
            <mxPoint x="1990" y="840" as="targetPoint" />
            <mxPoint as="offset" />
          </mxGeometry>
        </mxCell>
        <mxCell id="YuR1K-Is_MYV1LeaTMjd-26" value="new StateService" style="html=1;verticalAlign=bottom;endArrow=block;curved=0;rounded=0;" edge="1" parent="1" target="YuR1K-Is_MYV1LeaTMjd-12">
          <mxGeometry x="0.8344" width="80" relative="1" as="geometry">
            <mxPoint x="1910" y="850" as="sourcePoint" />
            <mxPoint x="1990" y="850" as="targetPoint" />
            <mxPoint as="offset" />
          </mxGeometry>
        </mxCell>
        <mxCell id="YuR1K-Is_MYV1LeaTMjd-27" value="N/A" style="html=1;verticalAlign=bottom;endArrow=open;dashed=1;endSize=8;curved=0;rounded=0;" edge="1" parent="1" target="YuR1K-Is_MYV1LeaTMjd-5">
          <mxGeometry x="-0.7741" y="-11" relative="1" as="geometry">
            <mxPoint x="2596.7799999999997" y="990" as="sourcePoint" />
            <mxPoint x="2110" y="990" as="targetPoint" />
            <mxPoint as="offset" />
          </mxGeometry>
        </mxCell>
        <mxCell id="YuR1K-Is_MYV1LeaTMjd-28" value="N/A" style="html=1;verticalAlign=bottom;endArrow=open;dashed=1;endSize=8;curved=0;rounded=0;" edge="1" parent="1" target="YuR1K-Is_MYV1LeaTMjd-5">
          <mxGeometry x="-0.841" y="-11" relative="1" as="geometry">
            <mxPoint x="2747.67" y="1000" as="sourcePoint" />
            <mxPoint x="2110" y="1000" as="targetPoint" />
            <mxPoint as="offset" />
          </mxGeometry>
        </mxCell>
        <mxCell id="YuR1K-Is_MYV1LeaTMjd-29" value="newLogEntry" style="html=1;verticalAlign=bottom;endArrow=block;curved=0;rounded=0;" edge="1" parent="1" target="YuR1K-Is_MYV1LeaTMjd-10">
          <mxGeometry x="0.6939" y="10" width="80" relative="1" as="geometry">
            <mxPoint x="2105" y="1110" as="sourcePoint" />
            <mxPoint x="2590" y="1110" as="targetPoint" />
            <mxPoint as="offset" />
          </mxGeometry>
        </mxCell>
        <mxCell id="YuR1K-Is_MYV1LeaTMjd-30" value="newStateEntry" style="html=1;verticalAlign=bottom;endArrow=block;curved=0;rounded=0;" edge="1" parent="1" target="YuR1K-Is_MYV1LeaTMjd-12">
          <mxGeometry x="0.7969" y="10" width="80" relative="1" as="geometry">
            <mxPoint x="2105" y="1140" as="sourcePoint" />
            <mxPoint x="2745" y="1140" as="targetPoint" />
            <mxPoint as="offset" />
          </mxGeometry>
        </mxCell>
        <mxCell id="YuR1K-Is_MYV1LeaTMjd-31" value="StateLog Success" style="html=1;verticalAlign=bottom;endArrow=open;dashed=1;endSize=8;curved=0;rounded=0;" edge="1" parent="1">
          <mxGeometry x="-0.811" relative="1" as="geometry">
            <mxPoint x="2749.5" y="1160" as="sourcePoint" />
            <mxPoint x="2105" y="1160" as="targetPoint" />
            <mxPoint as="offset" />
          </mxGeometry>
        </mxCell>
        <mxCell id="YuR1K-Is_MYV1LeaTMjd-32" value="DailyLog Success" style="html=1;verticalAlign=bottom;endArrow=open;dashed=1;endSize=8;curved=0;rounded=0;" edge="1" parent="1" target="YuR1K-Is_MYV1LeaTMjd-5">
          <mxGeometry x="-0.6939" relative="1" as="geometry">
            <mxPoint x="2595" y="1190" as="sourcePoint" />
            <mxPoint x="1960" y="1190" as="targetPoint" />
            <mxPoint as="offset" />
          </mxGeometry>
        </mxCell>
        <mxCell id="YuR1K-Is_MYV1LeaTMjd-33" value="" style="html=1;points=[];perimeter=orthogonalPerimeter;outlineConnect=0;targetShapes=umlLifeline;portConstraint=eastwest;newEdgeStyle={&quot;edgeStyle&quot;:&quot;elbowEdgeStyle&quot;,&quot;elbow&quot;:&quot;vertical&quot;,&quot;curved&quot;:0,&quot;rounded&quot;:0};" vertex="1" parent="1">
          <mxGeometry x="2275" y="1040" width="10" height="40" as="geometry" />
        </mxCell>
        <mxCell id="YuR1K-Is_MYV1LeaTMjd-34" value="CreateBackup" style="html=1;verticalAlign=bottom;endArrow=block;curved=0;rounded=0;" edge="1" parent="1" target="YuR1K-Is_MYV1LeaTMjd-33">
          <mxGeometry x="-0.0029" width="80" relative="1" as="geometry">
            <mxPoint x="2110" y="1039" as="sourcePoint" />
            <mxPoint x="2270" y="1039" as="targetPoint" />
            <mxPoint as="offset" />
          </mxGeometry>
        </mxCell>
        <mxCell id="YuR1K-Is_MYV1LeaTMjd-35" value="" style="html=1;points=[];perimeter=orthogonalPerimeter;outlineConnect=0;targetShapes=umlLifeline;portConstraint=eastwest;newEdgeStyle={&quot;edgeStyle&quot;:&quot;elbowEdgeStyle&quot;,&quot;elbow&quot;:&quot;vertical&quot;,&quot;curved&quot;:0,&quot;rounded&quot;:0};" vertex="1" parent="1">
          <mxGeometry x="2745" y="1140" width="10" height="30" as="geometry" />
        </mxCell>
        <mxCell id="YuR1K-Is_MYV1LeaTMjd-36" value="" style="html=1;points=[];perimeter=orthogonalPerimeter;outlineConnect=0;targetShapes=umlLifeline;portConstraint=eastwest;newEdgeStyle={&quot;edgeStyle&quot;:&quot;elbowEdgeStyle&quot;,&quot;elbow&quot;:&quot;vertical&quot;,&quot;curved&quot;:0,&quot;rounded&quot;:0};" vertex="1" parent="1">
          <mxGeometry x="2595" y="1110" width="10" height="80" as="geometry" />
        </mxCell>
        <mxCell id="YuR1K-Is_MYV1LeaTMjd-37" value="Diagramme Sequence CreateBackup" style="text;html=1;align=center;verticalAlign=middle;whiteSpace=wrap;rounded=0;" vertex="1" parent="1">
          <mxGeometry x="2255" y="720" width="225" height="30" as="geometry" />
        </mxCell>
        <mxCell id="YuR1K-Is_MYV1LeaTMjd-38" value="Program (main)" style="shape=umlLifeline;perimeter=lifelinePerimeter;whiteSpace=wrap;html=1;container=0;dropTarget=0;collapsible=0;recursiveResize=0;outlineConnect=0;portConstraint=eastwest;newEdgeStyle={&quot;edgeStyle&quot;:&quot;elbowEdgeStyle&quot;,&quot;elbow&quot;:&quot;vertical&quot;,&quot;curved&quot;:0,&quot;rounded&quot;:0};" vertex="1" parent="1">
          <mxGeometry x="2050" y="1420" width="100" height="480" as="geometry" />
        </mxCell>
        <mxCell id="YuR1K-Is_MYV1LeaTMjd-39" value="" style="html=1;points=[];perimeter=orthogonalPerimeter;outlineConnect=0;targetShapes=umlLifeline;portConstraint=eastwest;newEdgeStyle={&quot;edgeStyle&quot;:&quot;elbowEdgeStyle&quot;,&quot;elbow&quot;:&quot;vertical&quot;,&quot;curved&quot;:0,&quot;rounded&quot;:0};" vertex="1" parent="YuR1K-Is_MYV1LeaTMjd-38">
          <mxGeometry x="45" y="80" width="10" height="360" as="geometry" />
        </mxCell>
        <mxCell id="YuR1K-Is_MYV1LeaTMjd-40" value="BackupViewModel" style="shape=umlLifeline;perimeter=lifelinePerimeter;whiteSpace=wrap;html=1;container=0;dropTarget=0;collapsible=0;recursiveResize=0;outlineConnect=0;portConstraint=eastwest;newEdgeStyle={&quot;edgeStyle&quot;:&quot;elbowEdgeStyle&quot;,&quot;elbow&quot;:&quot;vertical&quot;,&quot;curved&quot;:0,&quot;rounded&quot;:0};" vertex="1" parent="1">
          <mxGeometry x="2230" y="1420" width="100" height="480" as="geometry" />
        </mxCell>
        <mxCell id="YuR1K-Is_MYV1LeaTMjd-41" value="" style="html=1;points=[];perimeter=orthogonalPerimeter;outlineConnect=0;targetShapes=umlLifeline;portConstraint=eastwest;newEdgeStyle={&quot;edgeStyle&quot;:&quot;elbowEdgeStyle&quot;,&quot;elbow&quot;:&quot;vertical&quot;,&quot;curved&quot;:0,&quot;rounded&quot;:0};" vertex="1" parent="YuR1K-Is_MYV1LeaTMjd-40">
          <mxGeometry x="45" y="150" width="10" height="70" as="geometry" />
        </mxCell>
        <mxCell id="YuR1K-Is_MYV1LeaTMjd-42" value="" style="shape=umlLifeline;perimeter=lifelinePerimeter;whiteSpace=wrap;html=1;container=1;dropTarget=0;collapsible=0;recursiveResize=0;outlineConnect=0;portConstraint=eastwest;newEdgeStyle={&quot;curved&quot;:0,&quot;rounded&quot;:0};participant=umlActor;" vertex="1" parent="1">
          <mxGeometry x="1900" y="1420" width="20" height="480" as="geometry" />
        </mxCell>
        <mxCell id="YuR1K-Is_MYV1LeaTMjd-43" value="DisplayListBackup" style="html=1;verticalAlign=bottom;endArrow=block;curved=0;rounded=0;" edge="1" parent="1" target="YuR1K-Is_MYV1LeaTMjd-39">
          <mxGeometry width="80" relative="1" as="geometry">
            <mxPoint x="1910" y="1540" as="sourcePoint" />
            <mxPoint x="1990" y="1540" as="targetPoint" />
          </mxGeometry>
        </mxCell>
        <mxCell id="YuR1K-Is_MYV1LeaTMjd-44" value="ListBackups" style="html=1;verticalAlign=bottom;endArrow=block;curved=0;rounded=0;" edge="1" parent="1">
          <mxGeometry x="-0.0029" width="80" relative="1" as="geometry">
            <mxPoint x="2105" y="1570" as="sourcePoint" />
            <mxPoint x="2279.5" y="1570" as="targetPoint" />
            <mxPoint as="offset" />
          </mxGeometry>
        </mxCell>
        <mxCell id="YuR1K-Is_MYV1LeaTMjd-45" value="alt" style="shape=umlFrame;whiteSpace=wrap;html=1;pointerEvents=0;" vertex="1" parent="1">
          <mxGeometry x="1930" y="1550" width="432.5" height="310" as="geometry" />
        </mxCell>
        <mxCell id="YuR1K-Is_MYV1LeaTMjd-46" value="" style="line;strokeWidth=1;fillColor=none;align=left;verticalAlign=middle;spacingTop=-1;spacingLeft=3;spacingRight=3;rotatable=0;labelPosition=right;points=[];portConstraint=eastwest;strokeColor=inherit;" vertex="1" parent="1">
          <mxGeometry x="1930" y="1676" width="432.5" height="8" as="geometry" />
        </mxCell>
        <mxCell id="YuR1K-Is_MYV1LeaTMjd-47" value="0 backups" style="text;html=1;align=center;verticalAlign=middle;whiteSpace=wrap;rounded=0;" vertex="1" parent="1">
          <mxGeometry x="1932.5" y="1580" width="130" height="30" as="geometry" />
        </mxCell>
        <mxCell id="YuR1K-Is_MYV1LeaTMjd-48" value="No backups available" style="html=1;verticalAlign=bottom;endArrow=open;dashed=1;endSize=8;curved=0;rounded=0;" edge="1" parent="1" target="YuR1K-Is_MYV1LeaTMjd-39">
          <mxGeometry x="-0.0303" y="-10" relative="1" as="geometry">
            <mxPoint x="2270" y="1640" as="sourcePoint" />
            <mxPoint x="2190" y="1640" as="targetPoint" />
            <mxPoint as="offset" />
          </mxGeometry>
        </mxCell>
        <mxCell id="YuR1K-Is_MYV1LeaTMjd-49" value="&amp;lt;0 Backups" style="text;html=1;align=center;verticalAlign=middle;whiteSpace=wrap;rounded=0;" vertex="1" parent="1">
          <mxGeometry x="1940" y="1684" width="130" height="30" as="geometry" />
        </mxCell>
        <mxCell id="YuR1K-Is_MYV1LeaTMjd-50" value="" style="html=1;points=[];perimeter=orthogonalPerimeter;outlineConnect=0;targetShapes=umlLifeline;portConstraint=eastwest;newEdgeStyle={&quot;edgeStyle&quot;:&quot;elbowEdgeStyle&quot;,&quot;elbow&quot;:&quot;vertical&quot;,&quot;curved&quot;:0,&quot;rounded&quot;:0};" vertex="1" parent="1">
          <mxGeometry x="2275" y="1700" width="10" height="120" as="geometry" />
        </mxCell>
        <mxCell id="YuR1K-Is_MYV1LeaTMjd-51" value="List Backups" style="html=1;verticalAlign=bottom;endArrow=block;curved=0;rounded=0;" edge="1" parent="1" target="YuR1K-Is_MYV1LeaTMjd-50">
          <mxGeometry x="-0.0029" width="80" relative="1" as="geometry">
            <mxPoint x="2110" y="1699" as="sourcePoint" />
            <mxPoint x="2270" y="1699" as="targetPoint" />
            <mxPoint as="offset" />
          </mxGeometry>
        </mxCell>
        <mxCell id="YuR1K-Is_MYV1LeaTMjd-52" value="loop" style="shape=umlFrame;whiteSpace=wrap;html=1;pointerEvents=0;" vertex="1" parent="1">
          <mxGeometry x="2190" y="1700" width="95" height="120" as="geometry" />
        </mxCell>
        <mxCell id="YuR1K-Is_MYV1LeaTMjd-53" value="For each backup&lt;div&gt;&lt;br&gt;&lt;/div&gt;" style="text;html=1;align=center;verticalAlign=middle;whiteSpace=wrap;rounded=0;" vertex="1" parent="1">
          <mxGeometry x="2190" y="1745" width="60" height="30" as="geometry" />
        </mxCell>
        <mxCell id="YuR1K-Is_MYV1LeaTMjd-54" value="Backup infos" style="html=1;verticalAlign=bottom;endArrow=open;dashed=1;endSize=8;curved=0;rounded=0;" edge="1" parent="1">
          <mxGeometry x="0.0909" y="30" relative="1" as="geometry">
            <mxPoint x="2272.5" y="1810" as="sourcePoint" />
            <mxPoint x="2107.5" y="1810" as="targetPoint" />
            <mxPoint as="offset" />
          </mxGeometry>
        </mxCell>
        <mxCell id="YuR1K-Is_MYV1LeaTMjd-55" value="Diagramme Sequence ListBackup" style="text;html=1;align=center;verticalAlign=middle;whiteSpace=wrap;rounded=0;" vertex="1" parent="1">
          <mxGeometry x="2012.5" y="1370" width="225" height="30" as="geometry" />
        </mxCell>
        <mxCell id="YuR1K-Is_MYV1LeaTMjd-56" value="Program (main)" style="shape=umlLifeline;perimeter=lifelinePerimeter;whiteSpace=wrap;html=1;container=0;dropTarget=0;collapsible=0;recursiveResize=0;outlineConnect=0;portConstraint=eastwest;newEdgeStyle={&quot;edgeStyle&quot;:&quot;elbowEdgeStyle&quot;,&quot;elbow&quot;:&quot;vertical&quot;,&quot;curved&quot;:0,&quot;rounded&quot;:0};" vertex="1" parent="1">
          <mxGeometry x="2057.5" y="2000" width="100" height="630" as="geometry" />
        </mxCell>
        <mxCell id="YuR1K-Is_MYV1LeaTMjd-57" value="" style="html=1;points=[];perimeter=orthogonalPerimeter;outlineConnect=0;targetShapes=umlLifeline;portConstraint=eastwest;newEdgeStyle={&quot;edgeStyle&quot;:&quot;elbowEdgeStyle&quot;,&quot;elbow&quot;:&quot;vertical&quot;,&quot;curved&quot;:0,&quot;rounded&quot;:0};" vertex="1" parent="YuR1K-Is_MYV1LeaTMjd-56">
          <mxGeometry x="45" y="80" width="10" height="530" as="geometry" />
        </mxCell>
        <mxCell id="YuR1K-Is_MYV1LeaTMjd-58" value="BackupViewModel" style="shape=umlLifeline;perimeter=lifelinePerimeter;whiteSpace=wrap;html=1;container=0;dropTarget=0;collapsible=0;recursiveResize=0;outlineConnect=0;portConstraint=eastwest;newEdgeStyle={&quot;edgeStyle&quot;:&quot;elbowEdgeStyle&quot;,&quot;elbow&quot;:&quot;vertical&quot;,&quot;curved&quot;:0,&quot;rounded&quot;:0};" vertex="1" parent="1">
          <mxGeometry x="2237.5" y="2000" width="100" height="630" as="geometry" />
        </mxCell>
        <mxCell id="YuR1K-Is_MYV1LeaTMjd-59" value="" style="html=1;points=[];perimeter=orthogonalPerimeter;outlineConnect=0;targetShapes=umlLifeline;portConstraint=eastwest;newEdgeStyle={&quot;edgeStyle&quot;:&quot;elbowEdgeStyle&quot;,&quot;elbow&quot;:&quot;vertical&quot;,&quot;curved&quot;:0,&quot;rounded&quot;:0};" vertex="1" parent="YuR1K-Is_MYV1LeaTMjd-58">
          <mxGeometry x="45" y="150" width="10" height="70" as="geometry" />
        </mxCell>
        <mxCell id="YuR1K-Is_MYV1LeaTMjd-60" value="DailyLogService" style="shape=umlLifeline;perimeter=lifelinePerimeter;whiteSpace=wrap;html=1;container=0;dropTarget=0;collapsible=0;recursiveResize=0;outlineConnect=0;portConstraint=eastwest;newEdgeStyle={&quot;edgeStyle&quot;:&quot;elbowEdgeStyle&quot;,&quot;elbow&quot;:&quot;vertical&quot;,&quot;curved&quot;:0,&quot;rounded&quot;:0};" vertex="1" parent="1">
          <mxGeometry x="2557.5" y="2000" width="100" height="630" as="geometry" />
        </mxCell>
        <mxCell id="YuR1K-Is_MYV1LeaTMjd-61" value="" style="html=1;points=[];perimeter=orthogonalPerimeter;outlineConnect=0;targetShapes=umlLifeline;portConstraint=eastwest;newEdgeStyle={&quot;edgeStyle&quot;:&quot;elbowEdgeStyle&quot;,&quot;elbow&quot;:&quot;vertical&quot;,&quot;curved&quot;:0,&quot;rounded&quot;:0};" vertex="1" parent="YuR1K-Is_MYV1LeaTMjd-60">
          <mxGeometry x="45" y="80" width="10" height="150" as="geometry" />
        </mxCell>
        <mxCell id="YuR1K-Is_MYV1LeaTMjd-62" value="" style="html=1;points=[];perimeter=orthogonalPerimeter;outlineConnect=0;targetShapes=umlLifeline;portConstraint=eastwest;newEdgeStyle={&quot;edgeStyle&quot;:&quot;elbowEdgeStyle&quot;,&quot;elbow&quot;:&quot;vertical&quot;,&quot;curved&quot;:0,&quot;rounded&quot;:0};" vertex="1" parent="YuR1K-Is_MYV1LeaTMjd-60">
          <mxGeometry x="45" y="510" width="10" height="40" as="geometry" />
        </mxCell>
        <mxCell id="YuR1K-Is_MYV1LeaTMjd-63" value="StateService" style="shape=umlLifeline;perimeter=lifelinePerimeter;whiteSpace=wrap;html=1;container=0;dropTarget=0;collapsible=0;recursiveResize=0;outlineConnect=0;portConstraint=eastwest;newEdgeStyle={&quot;edgeStyle&quot;:&quot;elbowEdgeStyle&quot;,&quot;elbow&quot;:&quot;vertical&quot;,&quot;curved&quot;:0,&quot;rounded&quot;:0};" vertex="1" parent="1">
          <mxGeometry x="2707.5" y="2000" width="100" height="630" as="geometry" />
        </mxCell>
        <mxCell id="YuR1K-Is_MYV1LeaTMjd-64" value="" style="html=1;points=[];perimeter=orthogonalPerimeter;outlineConnect=0;targetShapes=umlLifeline;portConstraint=eastwest;newEdgeStyle={&quot;edgeStyle&quot;:&quot;elbowEdgeStyle&quot;,&quot;elbow&quot;:&quot;vertical&quot;,&quot;curved&quot;:0,&quot;rounded&quot;:0};" vertex="1" parent="YuR1K-Is_MYV1LeaTMjd-63">
          <mxGeometry x="45" y="80" width="10" height="160" as="geometry" />
        </mxCell>
        <mxCell id="YuR1K-Is_MYV1LeaTMjd-65" value="" style="html=1;points=[];perimeter=orthogonalPerimeter;outlineConnect=0;targetShapes=umlLifeline;portConstraint=eastwest;newEdgeStyle={&quot;edgeStyle&quot;:&quot;elbowEdgeStyle&quot;,&quot;elbow&quot;:&quot;vertical&quot;,&quot;curved&quot;:0,&quot;rounded&quot;:0};" vertex="1" parent="YuR1K-Is_MYV1LeaTMjd-63">
          <mxGeometry x="45" y="360" width="10" height="50" as="geometry" />
        </mxCell>
        <mxCell id="YuR1K-Is_MYV1LeaTMjd-66" value="" style="shape=umlLifeline;perimeter=lifelinePerimeter;whiteSpace=wrap;html=1;container=1;dropTarget=0;collapsible=0;recursiveResize=0;outlineConnect=0;portConstraint=eastwest;newEdgeStyle={&quot;curved&quot;:0,&quot;rounded&quot;:0};participant=umlActor;" vertex="1" parent="1">
          <mxGeometry x="1907.5" y="2000" width="20" height="620" as="geometry" />
        </mxCell>
        <mxCell id="YuR1K-Is_MYV1LeaTMjd-67" value="DisplayRunBackup" style="html=1;verticalAlign=bottom;endArrow=block;curved=0;rounded=0;" edge="1" parent="1" target="YuR1K-Is_MYV1LeaTMjd-57">
          <mxGeometry x="0.0054" width="80" relative="1" as="geometry">
            <mxPoint x="1917.5" y="2120" as="sourcePoint" />
            <mxPoint x="1997.5" y="2120" as="targetPoint" />
            <mxPoint as="offset" />
          </mxGeometry>
        </mxCell>
        <mxCell id="YuR1K-Is_MYV1LeaTMjd-68" value="RunBackup" style="html=1;verticalAlign=bottom;endArrow=block;curved=0;rounded=0;" edge="1" parent="1">
          <mxGeometry x="-0.0029" width="80" relative="1" as="geometry">
            <mxPoint x="2112.5" y="2150" as="sourcePoint" />
            <mxPoint x="2287" y="2150" as="targetPoint" />
            <mxPoint as="offset" />
          </mxGeometry>
        </mxCell>
        <mxCell id="YuR1K-Is_MYV1LeaTMjd-69" value="alt" style="shape=umlFrame;whiteSpace=wrap;html=1;pointerEvents=0;" vertex="1" parent="1">
          <mxGeometry x="1937.5" y="2130" width="890" height="500" as="geometry" />
        </mxCell>
        <mxCell id="YuR1K-Is_MYV1LeaTMjd-70" value="" style="line;strokeWidth=1;fillColor=none;align=left;verticalAlign=middle;spacingTop=-1;spacingLeft=3;spacingRight=3;rotatable=0;labelPosition=right;points=[];portConstraint=eastwest;strokeColor=inherit;" vertex="1" parent="1">
          <mxGeometry x="1937.5" y="2256" width="890" height="8" as="geometry" />
        </mxCell>
        <mxCell id="YuR1K-Is_MYV1LeaTMjd-71" value="Backup job not found&amp;nbsp;" style="text;html=1;align=center;verticalAlign=middle;whiteSpace=wrap;rounded=0;" vertex="1" parent="1">
          <mxGeometry x="1967.5" y="2160" width="130" height="30" as="geometry" />
        </mxCell>
        <mxCell id="YuR1K-Is_MYV1LeaTMjd-72" value="Backup Job not found" style="html=1;verticalAlign=bottom;endArrow=open;dashed=1;endSize=8;curved=0;rounded=0;" edge="1" parent="1" target="YuR1K-Is_MYV1LeaTMjd-57">
          <mxGeometry x="-0.0303" y="-10" relative="1" as="geometry">
            <mxPoint x="2277.5" y="2220" as="sourcePoint" />
            <mxPoint x="2197.5" y="2220" as="targetPoint" />
            <mxPoint as="offset" />
          </mxGeometry>
        </mxCell>
        <mxCell id="YuR1K-Is_MYV1LeaTMjd-73" value="Backup job found" style="text;html=1;align=center;verticalAlign=middle;whiteSpace=wrap;rounded=0;" vertex="1" parent="1">
          <mxGeometry x="1947.5" y="2264" width="130" height="30" as="geometry" />
        </mxCell>
        <mxCell id="YuR1K-Is_MYV1LeaTMjd-74" value="Error during backup" style="html=1;verticalAlign=bottom;endArrow=open;dashed=1;endSize=8;curved=0;rounded=0;" edge="1" parent="1">
          <mxGeometry x="-0.0294" y="-10" relative="1" as="geometry">
            <mxPoint x="2282.5" y="2330" as="sourcePoint" />
            <mxPoint x="2112.5" y="2330" as="targetPoint" />
            <mxPoint x="1" as="offset" />
          </mxGeometry>
        </mxCell>
        <mxCell id="YuR1K-Is_MYV1LeaTMjd-75" value="new DailyLogService" style="html=1;verticalAlign=bottom;endArrow=block;curved=0;rounded=0;" edge="1" parent="1" target="YuR1K-Is_MYV1LeaTMjd-60">
          <mxGeometry x="0.7984" width="80" relative="1" as="geometry">
            <mxPoint x="1917.5" y="2080" as="sourcePoint" />
            <mxPoint x="1997.5" y="2080" as="targetPoint" />
            <mxPoint as="offset" />
          </mxGeometry>
        </mxCell>
        <mxCell id="YuR1K-Is_MYV1LeaTMjd-76" value="new StateService" style="html=1;verticalAlign=bottom;endArrow=block;curved=0;rounded=0;" edge="1" parent="1" target="YuR1K-Is_MYV1LeaTMjd-63">
          <mxGeometry x="0.8344" width="80" relative="1" as="geometry">
            <mxPoint x="1917.5" y="2090" as="sourcePoint" />
            <mxPoint x="1997.5" y="2090" as="targetPoint" />
            <mxPoint as="offset" />
          </mxGeometry>
        </mxCell>
        <mxCell id="YuR1K-Is_MYV1LeaTMjd-77" value="N/A" style="html=1;verticalAlign=bottom;endArrow=open;dashed=1;endSize=8;curved=0;rounded=0;" edge="1" parent="1" target="YuR1K-Is_MYV1LeaTMjd-57">
          <mxGeometry x="-0.7741" y="-11" relative="1" as="geometry">
            <mxPoint x="2604.2799999999997" y="2230" as="sourcePoint" />
            <mxPoint x="2117.5" y="2230" as="targetPoint" />
            <mxPoint as="offset" />
          </mxGeometry>
        </mxCell>
        <mxCell id="YuR1K-Is_MYV1LeaTMjd-78" value="N/A" style="html=1;verticalAlign=bottom;endArrow=open;dashed=1;endSize=8;curved=0;rounded=0;" edge="1" parent="1" target="YuR1K-Is_MYV1LeaTMjd-57">
          <mxGeometry x="-0.841" y="-11" relative="1" as="geometry">
            <mxPoint x="2755.17" y="2240" as="sourcePoint" />
            <mxPoint x="2117.5" y="2240" as="targetPoint" />
            <mxPoint as="offset" />
          </mxGeometry>
        </mxCell>
        <mxCell id="YuR1K-Is_MYV1LeaTMjd-79" value="" style="html=1;points=[];perimeter=orthogonalPerimeter;outlineConnect=0;targetShapes=umlLifeline;portConstraint=eastwest;newEdgeStyle={&quot;edgeStyle&quot;:&quot;elbowEdgeStyle&quot;,&quot;elbow&quot;:&quot;vertical&quot;,&quot;curved&quot;:0,&quot;rounded&quot;:0};" vertex="1" parent="1">
          <mxGeometry x="2282.5" y="2280" width="10" height="60" as="geometry" />
        </mxCell>
        <mxCell id="YuR1K-Is_MYV1LeaTMjd-80" value="RunBackup" style="html=1;verticalAlign=bottom;endArrow=block;curved=0;rounded=0;" edge="1" parent="1" target="YuR1K-Is_MYV1LeaTMjd-79">
          <mxGeometry x="-0.0029" width="80" relative="1" as="geometry">
            <mxPoint x="2110" y="2279" as="sourcePoint" />
            <mxPoint x="2277.5" y="2279" as="targetPoint" />
            <mxPoint as="offset" />
          </mxGeometry>
        </mxCell>
        <mxCell id="YuR1K-Is_MYV1LeaTMjd-81" value="alt" style="shape=umlFrame;whiteSpace=wrap;html=1;pointerEvents=0;" vertex="1" parent="1">
          <mxGeometry x="1960" y="2290" width="870" height="340" as="geometry" />
        </mxCell>
        <mxCell id="YuR1K-Is_MYV1LeaTMjd-82" value="" style="line;strokeWidth=1;fillColor=none;align=left;verticalAlign=middle;spacingTop=-1;spacingLeft=3;spacingRight=3;rotatable=0;labelPosition=right;points=[];portConstraint=eastwest;strokeColor=inherit;" vertex="1" parent="1">
          <mxGeometry x="1961.5" y="2416" width="870" height="8" as="geometry" />
        </mxCell>
        <mxCell id="YuR1K-Is_MYV1LeaTMjd-83" value="Backup run fail" style="text;html=1;align=center;verticalAlign=middle;whiteSpace=wrap;rounded=0;" vertex="1" parent="1">
          <mxGeometry x="1961.5" y="2330" width="72" height="30" as="geometry" />
        </mxCell>
        <mxCell id="YuR1K-Is_MYV1LeaTMjd-84" value="Backup run Well" style="text;html=1;align=center;verticalAlign=middle;whiteSpace=wrap;rounded=0;" vertex="1" parent="1">
          <mxGeometry x="1961.5" y="2480" width="72" height="30" as="geometry" />
        </mxCell>
        <mxCell id="YuR1K-Is_MYV1LeaTMjd-85" value="" style="html=1;points=[];perimeter=orthogonalPerimeter;outlineConnect=0;targetShapes=umlLifeline;portConstraint=eastwest;newEdgeStyle={&quot;edgeStyle&quot;:&quot;elbowEdgeStyle&quot;,&quot;elbow&quot;:&quot;vertical&quot;,&quot;curved&quot;:0,&quot;rounded&quot;:0};" vertex="1" parent="1">
          <mxGeometry x="2602.5" y="2350" width="10" height="40" as="geometry" />
        </mxCell>
        <mxCell id="YuR1K-Is_MYV1LeaTMjd-86" value="newLogEntry" style="html=1;verticalAlign=bottom;endArrow=block;curved=0;rounded=0;" edge="1" parent="1" source="YuR1K-Is_MYV1LeaTMjd-57" target="YuR1K-Is_MYV1LeaTMjd-85">
          <mxGeometry x="0.0244" width="80" relative="1" as="geometry">
            <mxPoint x="2128.75" y="2344.5" as="sourcePoint" />
            <mxPoint x="2600" y="2353" as="targetPoint" />
            <mxPoint as="offset" />
          </mxGeometry>
        </mxCell>
        <mxCell id="YuR1K-Is_MYV1LeaTMjd-87" value="DailyLog with the failing issue" style="html=1;verticalAlign=bottom;endArrow=open;dashed=1;endSize=8;curved=0;rounded=0;" edge="1" parent="1">
          <mxGeometry x="-0.2205" relative="1" as="geometry">
            <mxPoint x="2602.5" y="2390" as="sourcePoint" />
            <mxPoint x="2115" y="2390" as="targetPoint" />
            <mxPoint as="offset" />
          </mxGeometry>
        </mxCell>
        <mxCell id="YuR1K-Is_MYV1LeaTMjd-88" value="newStateFileEntry" style="html=1;verticalAlign=bottom;endArrow=block;curved=0;rounded=0;" edge="1" parent="1" source="YuR1K-Is_MYV1LeaTMjd-57" target="YuR1K-Is_MYV1LeaTMjd-65">
          <mxGeometry x="0.7734" width="80" relative="1" as="geometry">
            <mxPoint x="2120" y="2360" as="sourcePoint" />
            <mxPoint x="2582.5" y="2360" as="targetPoint" />
            <mxPoint x="1" as="offset" />
          </mxGeometry>
        </mxCell>
        <mxCell id="YuR1K-Is_MYV1LeaTMjd-89" value="StateFile with progress" style="html=1;verticalAlign=bottom;endArrow=open;dashed=1;endSize=8;curved=0;rounded=0;" edge="1" parent="1" source="YuR1K-Is_MYV1LeaTMjd-65">
          <mxGeometry x="-0.7743" relative="1" as="geometry">
            <mxPoint x="2737.5" y="2410" as="sourcePoint" />
            <mxPoint x="2120" y="2410" as="targetPoint" />
            <mxPoint x="1" as="offset" />
          </mxGeometry>
        </mxCell>
        <mxCell id="YuR1K-Is_MYV1LeaTMjd-90" value="" style="html=1;points=[];perimeter=orthogonalPerimeter;outlineConnect=0;targetShapes=umlLifeline;portConstraint=eastwest;newEdgeStyle={&quot;edgeStyle&quot;:&quot;elbowEdgeStyle&quot;,&quot;elbow&quot;:&quot;vertical&quot;,&quot;curved&quot;:0,&quot;rounded&quot;:0};" vertex="1" parent="1">
          <mxGeometry x="2282.5" y="2430" width="10" height="60" as="geometry" />
        </mxCell>
        <mxCell id="YuR1K-Is_MYV1LeaTMjd-91" value="Backup run Succeed" style="html=1;verticalAlign=bottom;endArrow=open;dashed=1;endSize=8;curved=0;rounded=0;" edge="1" parent="1">
          <mxGeometry x="-0.0294" y="-10" relative="1" as="geometry">
            <mxPoint x="2282.5" y="2490" as="sourcePoint" />
            <mxPoint x="2112.5" y="2490" as="targetPoint" />
            <mxPoint x="1" as="offset" />
          </mxGeometry>
        </mxCell>
        <mxCell id="YuR1K-Is_MYV1LeaTMjd-92" value="newLogEntry" style="html=1;verticalAlign=bottom;endArrow=block;curved=0;rounded=0;" edge="1" parent="1">
          <mxGeometry x="0.0244" width="80" relative="1" as="geometry">
            <mxPoint x="2115" y="2510" as="sourcePoint" />
            <mxPoint x="2605" y="2510" as="targetPoint" />
            <mxPoint as="offset" />
          </mxGeometry>
        </mxCell>
        <mxCell id="YuR1K-Is_MYV1LeaTMjd-93" value="DailyLog with the Succeed" style="html=1;verticalAlign=bottom;endArrow=open;dashed=1;endSize=8;curved=0;rounded=0;" edge="1" parent="1">
          <mxGeometry x="-0.2205" relative="1" as="geometry">
            <mxPoint x="2602.5" y="2550" as="sourcePoint" />
            <mxPoint x="2115" y="2550" as="targetPoint" />
            <mxPoint as="offset" />
          </mxGeometry>
        </mxCell>
        <mxCell id="YuR1K-Is_MYV1LeaTMjd-94" value="" style="html=1;points=[];perimeter=orthogonalPerimeter;outlineConnect=0;targetShapes=umlLifeline;portConstraint=eastwest;newEdgeStyle={&quot;edgeStyle&quot;:&quot;elbowEdgeStyle&quot;,&quot;elbow&quot;:&quot;vertical&quot;,&quot;curved&quot;:0,&quot;rounded&quot;:0};" vertex="1" parent="1">
          <mxGeometry x="2752.5" y="2520" width="10" height="50" as="geometry" />
        </mxCell>
        <mxCell id="YuR1K-Is_MYV1LeaTMjd-95" value="newStateFileEntry" style="html=1;verticalAlign=bottom;endArrow=block;curved=0;rounded=0;" edge="1" parent="1">
          <mxGeometry x="0.7734" width="80" relative="1" as="geometry">
            <mxPoint x="2110" y="2520" as="sourcePoint" />
            <mxPoint x="2760" y="2520" as="targetPoint" />
            <mxPoint x="1" as="offset" />
          </mxGeometry>
        </mxCell>
        <mxCell id="YuR1K-Is_MYV1LeaTMjd-96" value="StateFile with progress (100%)" style="html=1;verticalAlign=bottom;endArrow=open;dashed=1;endSize=8;curved=0;rounded=0;" edge="1" parent="1">
          <mxGeometry x="-0.7946" relative="1" as="geometry">
            <mxPoint x="2745" y="2570" as="sourcePoint" />
            <mxPoint x="2112" y="2570" as="targetPoint" />
            <mxPoint as="offset" />
          </mxGeometry>
        </mxCell>
        <mxCell id="YuR1K-Is_MYV1LeaTMjd-97" value="Diagramme Sequence RunBackup" style="text;html=1;align=center;verticalAlign=middle;whiteSpace=wrap;rounded=0;" vertex="1" parent="1">
          <mxGeometry x="2310" y="1950" width="225" height="30" as="geometry" />
        </mxCell>
        <mxCell id="YuR1K-Is_MYV1LeaTMjd-98" value="Program (main)" style="shape=umlLifeline;perimeter=lifelinePerimeter;whiteSpace=wrap;html=1;container=0;dropTarget=0;collapsible=0;recursiveResize=0;outlineConnect=0;portConstraint=eastwest;newEdgeStyle={&quot;edgeStyle&quot;:&quot;elbowEdgeStyle&quot;,&quot;elbow&quot;:&quot;vertical&quot;,&quot;curved&quot;:0,&quot;rounded&quot;:0};" vertex="1" parent="1">
          <mxGeometry x="2070" y="2760" width="100" height="630" as="geometry" />
        </mxCell>
        <mxCell id="YuR1K-Is_MYV1LeaTMjd-99" value="" style="html=1;points=[];perimeter=orthogonalPerimeter;outlineConnect=0;targetShapes=umlLifeline;portConstraint=eastwest;newEdgeStyle={&quot;edgeStyle&quot;:&quot;elbowEdgeStyle&quot;,&quot;elbow&quot;:&quot;vertical&quot;,&quot;curved&quot;:0,&quot;rounded&quot;:0};" vertex="1" parent="YuR1K-Is_MYV1LeaTMjd-98">
          <mxGeometry x="45" y="80" width="10" height="530" as="geometry" />
        </mxCell>
        <mxCell id="YuR1K-Is_MYV1LeaTMjd-100" value="BackupViewModel" style="shape=umlLifeline;perimeter=lifelinePerimeter;whiteSpace=wrap;html=1;container=0;dropTarget=0;collapsible=0;recursiveResize=0;outlineConnect=0;portConstraint=eastwest;newEdgeStyle={&quot;edgeStyle&quot;:&quot;elbowEdgeStyle&quot;,&quot;elbow&quot;:&quot;vertical&quot;,&quot;curved&quot;:0,&quot;rounded&quot;:0};" vertex="1" parent="1">
          <mxGeometry x="2250" y="2760" width="100" height="630" as="geometry" />
        </mxCell>
        <mxCell id="YuR1K-Is_MYV1LeaTMjd-101" value="" style="html=1;points=[];perimeter=orthogonalPerimeter;outlineConnect=0;targetShapes=umlLifeline;portConstraint=eastwest;newEdgeStyle={&quot;edgeStyle&quot;:&quot;elbowEdgeStyle&quot;,&quot;elbow&quot;:&quot;vertical&quot;,&quot;curved&quot;:0,&quot;rounded&quot;:0};" vertex="1" parent="YuR1K-Is_MYV1LeaTMjd-100">
          <mxGeometry x="45" y="150" width="10" height="70" as="geometry" />
        </mxCell>
        <mxCell id="YuR1K-Is_MYV1LeaTMjd-102" value="DailyLogService" style="shape=umlLifeline;perimeter=lifelinePerimeter;whiteSpace=wrap;html=1;container=0;dropTarget=0;collapsible=0;recursiveResize=0;outlineConnect=0;portConstraint=eastwest;newEdgeStyle={&quot;edgeStyle&quot;:&quot;elbowEdgeStyle&quot;,&quot;elbow&quot;:&quot;vertical&quot;,&quot;curved&quot;:0,&quot;rounded&quot;:0};" vertex="1" parent="1">
          <mxGeometry x="2570" y="2760" width="100" height="630" as="geometry" />
        </mxCell>
        <mxCell id="YuR1K-Is_MYV1LeaTMjd-103" value="" style="html=1;points=[];perimeter=orthogonalPerimeter;outlineConnect=0;targetShapes=umlLifeline;portConstraint=eastwest;newEdgeStyle={&quot;edgeStyle&quot;:&quot;elbowEdgeStyle&quot;,&quot;elbow&quot;:&quot;vertical&quot;,&quot;curved&quot;:0,&quot;rounded&quot;:0};" vertex="1" parent="YuR1K-Is_MYV1LeaTMjd-102">
          <mxGeometry x="45" y="80" width="10" height="150" as="geometry" />
        </mxCell>
        <mxCell id="YuR1K-Is_MYV1LeaTMjd-104" value="" style="html=1;points=[];perimeter=orthogonalPerimeter;outlineConnect=0;targetShapes=umlLifeline;portConstraint=eastwest;newEdgeStyle={&quot;edgeStyle&quot;:&quot;elbowEdgeStyle&quot;,&quot;elbow&quot;:&quot;vertical&quot;,&quot;curved&quot;:0,&quot;rounded&quot;:0};" vertex="1" parent="YuR1K-Is_MYV1LeaTMjd-102">
          <mxGeometry x="45" y="510" width="10" height="40" as="geometry" />
        </mxCell>
        <mxCell id="YuR1K-Is_MYV1LeaTMjd-105" value="StateService" style="shape=umlLifeline;perimeter=lifelinePerimeter;whiteSpace=wrap;html=1;container=0;dropTarget=0;collapsible=0;recursiveResize=0;outlineConnect=0;portConstraint=eastwest;newEdgeStyle={&quot;edgeStyle&quot;:&quot;elbowEdgeStyle&quot;,&quot;elbow&quot;:&quot;vertical&quot;,&quot;curved&quot;:0,&quot;rounded&quot;:0};" vertex="1" parent="1">
          <mxGeometry x="2720" y="2760" width="100" height="630" as="geometry" />
        </mxCell>
        <mxCell id="YuR1K-Is_MYV1LeaTMjd-106" value="" style="html=1;points=[];perimeter=orthogonalPerimeter;outlineConnect=0;targetShapes=umlLifeline;portConstraint=eastwest;newEdgeStyle={&quot;edgeStyle&quot;:&quot;elbowEdgeStyle&quot;,&quot;elbow&quot;:&quot;vertical&quot;,&quot;curved&quot;:0,&quot;rounded&quot;:0};" vertex="1" parent="YuR1K-Is_MYV1LeaTMjd-105">
          <mxGeometry x="45" y="80" width="10" height="160" as="geometry" />
        </mxCell>
        <mxCell id="YuR1K-Is_MYV1LeaTMjd-107" value="" style="html=1;points=[];perimeter=orthogonalPerimeter;outlineConnect=0;targetShapes=umlLifeline;portConstraint=eastwest;newEdgeStyle={&quot;edgeStyle&quot;:&quot;elbowEdgeStyle&quot;,&quot;elbow&quot;:&quot;vertical&quot;,&quot;curved&quot;:0,&quot;rounded&quot;:0};" vertex="1" parent="YuR1K-Is_MYV1LeaTMjd-105">
          <mxGeometry x="45" y="360" width="10" height="50" as="geometry" />
        </mxCell>
        <mxCell id="YuR1K-Is_MYV1LeaTMjd-108" value="" style="shape=umlLifeline;perimeter=lifelinePerimeter;whiteSpace=wrap;html=1;container=1;dropTarget=0;collapsible=0;recursiveResize=0;outlineConnect=0;portConstraint=eastwest;newEdgeStyle={&quot;curved&quot;:0,&quot;rounded&quot;:0};participant=umlActor;" vertex="1" parent="1">
          <mxGeometry x="1920" y="2760" width="20" height="620" as="geometry" />
        </mxCell>
        <mxCell id="YuR1K-Is_MYV1LeaTMjd-109" value="DisplayDeleteBackup" style="html=1;verticalAlign=bottom;endArrow=block;curved=0;rounded=0;" edge="1" parent="1" target="YuR1K-Is_MYV1LeaTMjd-99">
          <mxGeometry x="0.0054" width="80" relative="1" as="geometry">
            <mxPoint x="1930" y="2880" as="sourcePoint" />
            <mxPoint x="2010" y="2880" as="targetPoint" />
            <mxPoint as="offset" />
          </mxGeometry>
        </mxCell>
        <mxCell id="YuR1K-Is_MYV1LeaTMjd-110" value="DeleteBackup" style="html=1;verticalAlign=bottom;endArrow=block;curved=0;rounded=0;" edge="1" parent="1">
          <mxGeometry x="-0.0029" width="80" relative="1" as="geometry">
            <mxPoint x="2125" y="2910" as="sourcePoint" />
            <mxPoint x="2299.5" y="2910" as="targetPoint" />
            <mxPoint as="offset" />
          </mxGeometry>
        </mxCell>
        <mxCell id="YuR1K-Is_MYV1LeaTMjd-111" value="alt" style="shape=umlFrame;whiteSpace=wrap;html=1;pointerEvents=0;" vertex="1" parent="1">
          <mxGeometry x="1950" y="2890" width="890" height="500" as="geometry" />
        </mxCell>
        <mxCell id="YuR1K-Is_MYV1LeaTMjd-112" value="" style="line;strokeWidth=1;fillColor=none;align=left;verticalAlign=middle;spacingTop=-1;spacingLeft=3;spacingRight=3;rotatable=0;labelPosition=right;points=[];portConstraint=eastwest;strokeColor=inherit;" vertex="1" parent="1">
          <mxGeometry x="1950" y="3016" width="890" height="8" as="geometry" />
        </mxCell>
        <mxCell id="YuR1K-Is_MYV1LeaTMjd-113" value="Backup job not found&amp;nbsp;" style="text;html=1;align=center;verticalAlign=middle;whiteSpace=wrap;rounded=0;" vertex="1" parent="1">
          <mxGeometry x="1980" y="2920" width="130" height="30" as="geometry" />
        </mxCell>
        <mxCell id="YuR1K-Is_MYV1LeaTMjd-114" value="Backup Job not found" style="html=1;verticalAlign=bottom;endArrow=open;dashed=1;endSize=8;curved=0;rounded=0;" edge="1" parent="1" target="YuR1K-Is_MYV1LeaTMjd-99">
          <mxGeometry x="-0.0303" y="-10" relative="1" as="geometry">
            <mxPoint x="2290" y="2980" as="sourcePoint" />
            <mxPoint x="2210" y="2980" as="targetPoint" />
            <mxPoint as="offset" />
          </mxGeometry>
        </mxCell>
        <mxCell id="YuR1K-Is_MYV1LeaTMjd-115" value="Backup job found" style="text;html=1;align=center;verticalAlign=middle;whiteSpace=wrap;rounded=0;" vertex="1" parent="1">
          <mxGeometry x="1960" y="3024" width="130" height="30" as="geometry" />
        </mxCell>
        <mxCell id="YuR1K-Is_MYV1LeaTMjd-116" value="Error during backup Deleting" style="html=1;verticalAlign=bottom;endArrow=open;dashed=1;endSize=8;curved=0;rounded=0;" edge="1" parent="1">
          <mxGeometry x="-0.0294" y="-10" relative="1" as="geometry">
            <mxPoint x="2295" y="3090" as="sourcePoint" />
            <mxPoint x="2125" y="3090" as="targetPoint" />
            <mxPoint x="1" as="offset" />
          </mxGeometry>
        </mxCell>
        <mxCell id="YuR1K-Is_MYV1LeaTMjd-117" value="new DailyLogService" style="html=1;verticalAlign=bottom;endArrow=block;curved=0;rounded=0;" edge="1" parent="1" target="YuR1K-Is_MYV1LeaTMjd-102">
          <mxGeometry x="0.7984" width="80" relative="1" as="geometry">
            <mxPoint x="1930" y="2840" as="sourcePoint" />
            <mxPoint x="2010" y="2840" as="targetPoint" />
            <mxPoint as="offset" />
          </mxGeometry>
        </mxCell>
        <mxCell id="YuR1K-Is_MYV1LeaTMjd-118" value="new StateService" style="html=1;verticalAlign=bottom;endArrow=block;curved=0;rounded=0;" edge="1" parent="1" target="YuR1K-Is_MYV1LeaTMjd-105">
          <mxGeometry x="0.8344" width="80" relative="1" as="geometry">
            <mxPoint x="1930" y="2850" as="sourcePoint" />
            <mxPoint x="2010" y="2850" as="targetPoint" />
            <mxPoint as="offset" />
          </mxGeometry>
        </mxCell>
        <mxCell id="YuR1K-Is_MYV1LeaTMjd-119" value="N/A" style="html=1;verticalAlign=bottom;endArrow=open;dashed=1;endSize=8;curved=0;rounded=0;" edge="1" parent="1" target="YuR1K-Is_MYV1LeaTMjd-99">
          <mxGeometry x="-0.7741" y="-11" relative="1" as="geometry">
            <mxPoint x="2616.7799999999997" y="2990" as="sourcePoint" />
            <mxPoint x="2130" y="2990" as="targetPoint" />
            <mxPoint as="offset" />
          </mxGeometry>
        </mxCell>
        <mxCell id="YuR1K-Is_MYV1LeaTMjd-120" value="N/A" style="html=1;verticalAlign=bottom;endArrow=open;dashed=1;endSize=8;curved=0;rounded=0;" edge="1" parent="1" target="YuR1K-Is_MYV1LeaTMjd-99">
          <mxGeometry x="-0.841" y="-11" relative="1" as="geometry">
            <mxPoint x="2767.67" y="3000" as="sourcePoint" />
            <mxPoint x="2130" y="3000" as="targetPoint" />
            <mxPoint as="offset" />
          </mxGeometry>
        </mxCell>
        <mxCell id="YuR1K-Is_MYV1LeaTMjd-121" value="" style="html=1;points=[];perimeter=orthogonalPerimeter;outlineConnect=0;targetShapes=umlLifeline;portConstraint=eastwest;newEdgeStyle={&quot;edgeStyle&quot;:&quot;elbowEdgeStyle&quot;,&quot;elbow&quot;:&quot;vertical&quot;,&quot;curved&quot;:0,&quot;rounded&quot;:0};" vertex="1" parent="1">
          <mxGeometry x="2295" y="3040" width="10" height="60" as="geometry" />
        </mxCell>
        <mxCell id="YuR1K-Is_MYV1LeaTMjd-122" value="DeleteBackup" style="html=1;verticalAlign=bottom;endArrow=block;curved=0;rounded=0;" edge="1" parent="1" target="YuR1K-Is_MYV1LeaTMjd-121">
          <mxGeometry x="-0.0029" width="80" relative="1" as="geometry">
            <mxPoint x="2122.5" y="3039" as="sourcePoint" />
            <mxPoint x="2290" y="3039" as="targetPoint" />
            <mxPoint as="offset" />
          </mxGeometry>
        </mxCell>
        <mxCell id="YuR1K-Is_MYV1LeaTMjd-123" value="alt" style="shape=umlFrame;whiteSpace=wrap;html=1;pointerEvents=0;" vertex="1" parent="1">
          <mxGeometry x="1972.5" y="3050" width="870" height="340" as="geometry" />
        </mxCell>
        <mxCell id="YuR1K-Is_MYV1LeaTMjd-124" value="" style="line;strokeWidth=1;fillColor=none;align=left;verticalAlign=middle;spacingTop=-1;spacingLeft=3;spacingRight=3;rotatable=0;labelPosition=right;points=[];portConstraint=eastwest;strokeColor=inherit;" vertex="1" parent="1">
          <mxGeometry x="1974" y="3176" width="870" height="8" as="geometry" />
        </mxCell>
        <mxCell id="YuR1K-Is_MYV1LeaTMjd-125" value="Backup Deleting job and files failed" style="text;html=1;align=center;verticalAlign=middle;whiteSpace=wrap;rounded=0;" vertex="1" parent="1">
          <mxGeometry x="1974" y="3100" width="72" height="30" as="geometry" />
        </mxCell>
        <mxCell id="YuR1K-Is_MYV1LeaTMjd-126" value="Backup deleting worked&amp;nbsp; Well" style="text;html=1;align=center;verticalAlign=middle;whiteSpace=wrap;rounded=0;" vertex="1" parent="1">
          <mxGeometry x="1974" y="3240" width="72" height="30" as="geometry" />
        </mxCell>
        <mxCell id="YuR1K-Is_MYV1LeaTMjd-127" value="" style="html=1;points=[];perimeter=orthogonalPerimeter;outlineConnect=0;targetShapes=umlLifeline;portConstraint=eastwest;newEdgeStyle={&quot;edgeStyle&quot;:&quot;elbowEdgeStyle&quot;,&quot;elbow&quot;:&quot;vertical&quot;,&quot;curved&quot;:0,&quot;rounded&quot;:0};" vertex="1" parent="1">
          <mxGeometry x="2615" y="3110" width="10" height="40" as="geometry" />
        </mxCell>
        <mxCell id="YuR1K-Is_MYV1LeaTMjd-128" value="newLogEntry" style="html=1;verticalAlign=bottom;endArrow=block;curved=0;rounded=0;" edge="1" parent="1" source="YuR1K-Is_MYV1LeaTMjd-99" target="YuR1K-Is_MYV1LeaTMjd-127">
          <mxGeometry x="0.0244" width="80" relative="1" as="geometry">
            <mxPoint x="2141.25" y="3104.5" as="sourcePoint" />
            <mxPoint x="2612.5" y="3113" as="targetPoint" />
            <mxPoint as="offset" />
          </mxGeometry>
        </mxCell>
        <mxCell id="YuR1K-Is_MYV1LeaTMjd-129" value="DailyLog with the failing issue" style="html=1;verticalAlign=bottom;endArrow=open;dashed=1;endSize=8;curved=0;rounded=0;" edge="1" parent="1">
          <mxGeometry x="-0.2205" relative="1" as="geometry">
            <mxPoint x="2615" y="3150" as="sourcePoint" />
            <mxPoint x="2127.5" y="3150" as="targetPoint" />
            <mxPoint as="offset" />
          </mxGeometry>
        </mxCell>
        <mxCell id="YuR1K-Is_MYV1LeaTMjd-130" value="newStateFileEntry" style="html=1;verticalAlign=bottom;endArrow=block;curved=0;rounded=0;" edge="1" parent="1" source="YuR1K-Is_MYV1LeaTMjd-99" target="YuR1K-Is_MYV1LeaTMjd-107">
          <mxGeometry x="0.7734" width="80" relative="1" as="geometry">
            <mxPoint x="2132.5" y="3120" as="sourcePoint" />
            <mxPoint x="2595" y="3120" as="targetPoint" />
            <mxPoint x="1" as="offset" />
          </mxGeometry>
        </mxCell>
        <mxCell id="YuR1K-Is_MYV1LeaTMjd-131" value="StateFile with progress" style="html=1;verticalAlign=bottom;endArrow=open;dashed=1;endSize=8;curved=0;rounded=0;" edge="1" parent="1" source="YuR1K-Is_MYV1LeaTMjd-107">
          <mxGeometry x="-0.7743" relative="1" as="geometry">
            <mxPoint x="2750" y="3170" as="sourcePoint" />
            <mxPoint x="2132.5" y="3170" as="targetPoint" />
            <mxPoint x="1" as="offset" />
          </mxGeometry>
        </mxCell>
        <mxCell id="YuR1K-Is_MYV1LeaTMjd-132" value="" style="html=1;points=[];perimeter=orthogonalPerimeter;outlineConnect=0;targetShapes=umlLifeline;portConstraint=eastwest;newEdgeStyle={&quot;edgeStyle&quot;:&quot;elbowEdgeStyle&quot;,&quot;elbow&quot;:&quot;vertical&quot;,&quot;curved&quot;:0,&quot;rounded&quot;:0};" vertex="1" parent="1">
          <mxGeometry x="2295" y="3190" width="10" height="60" as="geometry" />
        </mxCell>
        <mxCell id="YuR1K-Is_MYV1LeaTMjd-133" value="Backup and files Deleting well" style="html=1;verticalAlign=bottom;endArrow=open;dashed=1;endSize=8;curved=0;rounded=0;" edge="1" parent="1">
          <mxGeometry x="-0.0294" y="-10" relative="1" as="geometry">
            <mxPoint x="2295" y="3250" as="sourcePoint" />
            <mxPoint x="2125" y="3250" as="targetPoint" />
            <mxPoint x="1" as="offset" />
          </mxGeometry>
        </mxCell>
        <mxCell id="YuR1K-Is_MYV1LeaTMjd-134" value="newLogEntry" style="html=1;verticalAlign=bottom;endArrow=block;curved=0;rounded=0;" edge="1" parent="1">
          <mxGeometry x="0.0244" width="80" relative="1" as="geometry">
            <mxPoint x="2127.5" y="3270" as="sourcePoint" />
            <mxPoint x="2617.5" y="3270" as="targetPoint" />
            <mxPoint as="offset" />
          </mxGeometry>
        </mxCell>
        <mxCell id="YuR1K-Is_MYV1LeaTMjd-135" value="DailyLog with the Succeed Deleting" style="html=1;verticalAlign=bottom;endArrow=open;dashed=1;endSize=8;curved=0;rounded=0;" edge="1" parent="1">
          <mxGeometry x="-0.2205" relative="1" as="geometry">
            <mxPoint x="2615" y="3310" as="sourcePoint" />
            <mxPoint x="2127.5" y="3310" as="targetPoint" />
            <mxPoint as="offset" />
          </mxGeometry>
        </mxCell>
        <mxCell id="YuR1K-Is_MYV1LeaTMjd-136" value="" style="html=1;points=[];perimeter=orthogonalPerimeter;outlineConnect=0;targetShapes=umlLifeline;portConstraint=eastwest;newEdgeStyle={&quot;edgeStyle&quot;:&quot;elbowEdgeStyle&quot;,&quot;elbow&quot;:&quot;vertical&quot;,&quot;curved&quot;:0,&quot;rounded&quot;:0};" vertex="1" parent="1">
          <mxGeometry x="2765" y="3280" width="10" height="50" as="geometry" />
        </mxCell>
        <mxCell id="YuR1K-Is_MYV1LeaTMjd-137" value="newStateFileEntry" style="html=1;verticalAlign=bottom;endArrow=block;curved=0;rounded=0;" edge="1" parent="1">
          <mxGeometry x="0.7734" width="80" relative="1" as="geometry">
            <mxPoint x="2122.5" y="3280" as="sourcePoint" />
            <mxPoint x="2772.5" y="3280" as="targetPoint" />
            <mxPoint x="1" as="offset" />
          </mxGeometry>
        </mxCell>
        <mxCell id="YuR1K-Is_MYV1LeaTMjd-138" value="StateFile with progress (100%)" style="html=1;verticalAlign=bottom;endArrow=open;dashed=1;endSize=8;curved=0;rounded=0;" edge="1" parent="1">
          <mxGeometry x="-0.7867" relative="1" as="geometry">
            <mxPoint x="2757.5" y="3330" as="sourcePoint" />
            <mxPoint x="2124.5" y="3330" as="targetPoint" />
            <mxPoint x="1" as="offset" />
          </mxGeometry>
        </mxCell>
        <mxCell id="YuR1K-Is_MYV1LeaTMjd-139" value="Diagramme Sequence DeleteBackup" style="text;html=1;align=center;verticalAlign=middle;whiteSpace=wrap;rounded=0;" vertex="1" parent="1">
          <mxGeometry x="2322.5" y="2710" width="225" height="30" as="geometry" />
        </mxCell>
        <mxCell id="YuR1K-Is_MYV1LeaTMjd-140" value="Program (Main)Â " style="swimlane;fontStyle=2;align=center;verticalAlign=top;childLayout=stackLayout;horizontal=1;startSize=26;horizontalStack=0;resizeParent=1;resizeLast=0;collapsible=1;marginBottom=0;rounded=0;shadow=0;strokeWidth=1;" vertex="1" parent="1">
          <mxGeometry x="3700" y="1540" width="430" height="300" as="geometry">
            <mxRectangle x="230" y="140" width="160" height="26" as="alternateBounds" />
          </mxGeometry>
        </mxCell>
        <mxCell id="YuR1K-Is_MYV1LeaTMjd-141" value="- dailyLogService: DailyLogServiceÂ " style="text;align=left;verticalAlign=top;spacingLeft=4;spacingRight=4;overflow=hidden;rotatable=0;points=[[0,0.5],[1,0.5]];portConstraint=eastwest;" vertex="1" parent="YuR1K-Is_MYV1LeaTMjd-140">
          <mxGeometry y="26" width="430" height="26" as="geometry" />
        </mxCell>
        <mxCell id="YuR1K-Is_MYV1LeaTMjd-142" value="- stateService: StateServiceÂ " style="text;align=left;verticalAlign=top;spacingLeft=4;spacingRight=4;overflow=hidden;rotatable=0;points=[[0,0.5],[1,0.5]];portConstraint=eastwest;rounded=0;shadow=0;html=0;" vertex="1" parent="YuR1K-Is_MYV1LeaTMjd-140">
          <mxGeometry y="52" width="430" height="26" as="geometry" />
        </mxCell>
        <mxCell id="YuR1K-Is_MYV1LeaTMjd-143" value="" style="line;html=1;strokeWidth=1;align=left;verticalAlign=middle;spacingTop=-1;spacingLeft=3;spacingRight=3;rotatable=0;labelPosition=right;points=[];portConstraint=eastwest;" vertex="1" parent="YuR1K-Is_MYV1LeaTMjd-140">
          <mxGeometry y="78" width="430" height="8" as="geometry" />
        </mxCell>
        <mxCell id="YuR1K-Is_MYV1LeaTMjd-144" value="+ Main(args: string): void&#xa;&#xa;+ DisplayShowMainMenu(viewModel: BackupViewModel): void&#xa;Â Â &#xa;+ DisplayCreateBackup(viewModel: BackupViewModel): void&#xa;&#xa;+ DisplayListBackups(viewModel: BackupViewModel): void&#xa;Â &#xa;+ DisplayRunBackupMenu(viewModel: BackupViewModel): voidÂ &#xa;Â Â &#xa;+ DisplayDeleteBackup(viewModel: BackupViewModel): voidÂ  Â " style="text;align=left;verticalAlign=top;spacingLeft=4;spacingRight=4;overflow=hidden;rotatable=0;points=[[0,0.5],[1,0.5]];portConstraint=eastwest;" vertex="1" parent="YuR1K-Is_MYV1LeaTMjd-140">
          <mxGeometry y="86" width="430" height="174" as="geometry" />
        </mxCell>
        <mxCell id="YuR1K-Is_MYV1LeaTMjd-145" value="Â LogEntryÂ " style="swimlane;fontStyle=0;align=center;verticalAlign=top;childLayout=stackLayout;horizontal=1;startSize=26;horizontalStack=0;resizeParent=1;resizeLast=0;collapsible=1;marginBottom=0;rounded=0;shadow=0;strokeWidth=1;" vertex="1" parent="1">
          <mxGeometry x="3710" y="2220" width="380" height="182" as="geometry">
            <mxRectangle x="130" y="380" width="160" height="26" as="alternateBounds" />
          </mxGeometry>
        </mxCell>
        <mxCell id="YuR1K-Is_MYV1LeaTMjd-146" value="+ Timestamp : DateTimeÂ " style="text;align=left;verticalAlign=top;spacingLeft=4;spacingRight=4;overflow=hidden;rotatable=0;points=[[0,0.5],[1,0.5]];portConstraint=eastwest;" vertex="1" parent="YuR1K-Is_MYV1LeaTMjd-145">
          <mxGeometry y="26" width="380" height="26" as="geometry" />
        </mxCell>
        <mxCell id="YuR1K-Is_MYV1LeaTMjd-147" value="+ BackupName : stringÂ Â " style="text;align=left;verticalAlign=top;spacingLeft=4;spacingRight=4;overflow=hidden;rotatable=0;points=[[0,0.5],[1,0.5]];portConstraint=eastwest;rounded=0;shadow=0;html=0;" vertex="1" parent="YuR1K-Is_MYV1LeaTMjd-145">
          <mxGeometry y="52" width="380" height="26" as="geometry" />
        </mxCell>
        <mxCell id="YuR1K-Is_MYV1LeaTMjd-148" value="+ SourcePath : stringÂ " style="text;align=left;verticalAlign=top;spacingLeft=4;spacingRight=4;overflow=hidden;rotatable=0;points=[[0,0.5],[1,0.5]];portConstraint=eastwest;fontStyle=0" vertex="1" parent="YuR1K-Is_MYV1LeaTMjd-145">
          <mxGeometry y="78" width="380" height="26" as="geometry" />
        </mxCell>
        <mxCell id="YuR1K-Is_MYV1LeaTMjd-149" value="+ DestinationPath : string&#xa;Â " style="text;align=left;verticalAlign=top;spacingLeft=4;spacingRight=4;overflow=hidden;rotatable=0;points=[[0,0.5],[1,0.5]];portConstraint=eastwest;" vertex="1" parent="YuR1K-Is_MYV1LeaTMjd-145">
          <mxGeometry y="104" width="380" height="26" as="geometry" />
        </mxCell>
        <mxCell id="YuR1K-Is_MYV1LeaTMjd-150" value="+ FileSize : long" style="text;align=left;verticalAlign=top;spacingLeft=4;spacingRight=4;overflow=hidden;rotatable=0;points=[[0,0.5],[1,0.5]];portConstraint=eastwest;" vertex="1" parent="YuR1K-Is_MYV1LeaTMjd-145">
          <mxGeometry y="130" width="380" height="26" as="geometry" />
        </mxCell>
        <mxCell id="YuR1K-Is_MYV1LeaTMjd-151" value="+ TransferTime : double" style="text;align=left;verticalAlign=top;spacingLeft=4;spacingRight=4;overflow=hidden;rotatable=0;points=[[0,0.5],[1,0.5]];portConstraint=eastwest;" vertex="1" parent="YuR1K-Is_MYV1LeaTMjd-145">
          <mxGeometry y="156" width="380" height="26" as="geometry" />
        </mxCell>
        <mxCell id="YuR1K-Is_MYV1LeaTMjd-152" value="DailyLogService" style="swimlane;fontStyle=0;align=center;verticalAlign=top;childLayout=stackLayout;horizontal=1;startSize=26;horizontalStack=0;resizeParent=1;resizeLast=0;collapsible=1;marginBottom=0;rounded=0;shadow=0;strokeWidth=1;" vertex="1" parent="1">
          <mxGeometry x="3680" y="1990" width="440" height="120" as="geometry">
            <mxRectangle x="340" y="380" width="170" height="26" as="alternateBounds" />
          </mxGeometry>
        </mxCell>
        <mxCell id="YuR1K-Is_MYV1LeaTMjd-153" value="- logsDirectory : stringÂ " style="text;align=left;verticalAlign=top;spacingLeft=4;spacingRight=4;overflow=hidden;rotatable=0;points=[[0,0.5],[1,0.5]];portConstraint=eastwest;" vertex="1" parent="YuR1K-Is_MYV1LeaTMjd-152">
          <mxGeometry y="26" width="440" height="26" as="geometry" />
        </mxCell>
        <mxCell id="YuR1K-Is_MYV1LeaTMjd-154" value="" style="line;html=1;strokeWidth=1;align=left;verticalAlign=middle;spacingTop=-1;spacingLeft=3;spacingRight=3;rotatable=0;labelPosition=right;points=[];portConstraint=eastwest;" vertex="1" parent="YuR1K-Is_MYV1LeaTMjd-152">
          <mxGeometry y="52" width="440" height="8" as="geometry" />
        </mxCell>
        <mxCell id="YuR1K-Is_MYV1LeaTMjd-155" value="+ DailyLogService(logsDirectory: string)Â Â " style="text;align=left;verticalAlign=top;spacingLeft=4;spacingRight=4;overflow=hidden;rotatable=0;points=[[0,0.5],[1,0.5]];portConstraint=eastwest;" vertex="1" parent="YuR1K-Is_MYV1LeaTMjd-152">
          <mxGeometry y="60" width="440" height="26" as="geometry" />
        </mxCell>
        <mxCell id="YuR1K-Is_MYV1LeaTMjd-156" value="+ WriteLogEntry(entry: LogEntry): voidÂ Â " style="text;align=left;verticalAlign=top;spacingLeft=4;spacingRight=4;overflow=hidden;rotatable=0;points=[[0,0.5],[1,0.5]];portConstraint=eastwest;" vertex="1" parent="YuR1K-Is_MYV1LeaTMjd-152">
          <mxGeometry y="86" width="440" height="26" as="geometry" />
        </mxCell>
        <mxCell id="YuR1K-Is_MYV1LeaTMjd-157" value="BackupViewModelÂ " style="swimlane;fontStyle=0;align=center;verticalAlign=top;childLayout=stackLayout;horizontal=1;startSize=26;horizontalStack=0;resizeParent=1;resizeLast=0;collapsible=1;marginBottom=0;rounded=0;shadow=0;strokeWidth=1;" vertex="1" parent="1">
          <mxGeometry x="4340" y="1400" width="420" height="200" as="geometry">
            <mxRectangle x="550" y="140" width="160" height="26" as="alternateBounds" />
          </mxGeometry>
        </mxCell>
        <mxCell id="YuR1K-Is_MYV1LeaTMjd-158" value="Â - backups : BackupModelÂ " style="text;align=left;verticalAlign=top;spacingLeft=4;spacingRight=4;overflow=hidden;rotatable=0;points=[[0,0.5],[1,0.5]];portConstraint=eastwest;" vertex="1" parent="YuR1K-Is_MYV1LeaTMjd-157">
          <mxGeometry y="26" width="420" height="26" as="geometry" />
        </mxCell>
        <mxCell id="YuR1K-Is_MYV1LeaTMjd-159" value="Â - Status : stringÂ " style="text;align=left;verticalAlign=top;spacingLeft=4;spacingRight=4;overflow=hidden;rotatable=0;points=[[0,0.5],[1,0.5]];portConstraint=eastwest;rounded=0;shadow=0;html=0;" vertex="1" parent="YuR1K-Is_MYV1LeaTMjd-157">
          <mxGeometry y="52" width="420" height="26" as="geometry" />
        </mxCell>
        <mxCell id="YuR1K-Is_MYV1LeaTMjd-160" value="" style="line;html=1;strokeWidth=1;align=left;verticalAlign=middle;spacingTop=-1;spacingLeft=3;spacingRight=3;rotatable=0;labelPosition=right;points=[];portConstraint=eastwest;" vertex="1" parent="YuR1K-Is_MYV1LeaTMjd-157">
          <mxGeometry y="78" width="420" height="8" as="geometry" />
        </mxCell>
        <mxCell id="YuR1K-Is_MYV1LeaTMjd-161" value="+ CreateBackup(name: string, src: string,dst: string, type: string): void " style="text;align=left;verticalAlign=top;spacingLeft=4;spacingRight=4;overflow=hidden;rotatable=0;points=[[0,0.5],[1,0.5]];portConstraint=eastwest;rounded=0;shadow=0;html=0;" vertex="1" parent="YuR1K-Is_MYV1LeaTMjd-157">
          <mxGeometry y="86" width="420" height="26" as="geometry" />
        </mxCell>
        <mxCell id="YuR1K-Is_MYV1LeaTMjd-162" value="+ ListBackups(): void" style="text;align=left;verticalAlign=top;spacingLeft=4;spacingRight=4;overflow=hidden;rotatable=0;points=[[0,0.5],[1,0.5]];portConstraint=eastwest;rounded=0;shadow=0;html=0;" vertex="1" parent="YuR1K-Is_MYV1LeaTMjd-157">
          <mxGeometry y="112" width="420" height="26" as="geometry" />
        </mxCell>
        <mxCell id="YuR1K-Is_MYV1LeaTMjd-163" value="+ RunBackup(name: string): voidÂ Â " style="text;align=left;verticalAlign=top;spacingLeft=4;spacingRight=4;overflow=hidden;rotatable=0;points=[[0,0.5],[1,0.5]];portConstraint=eastwest;rounded=0;shadow=0;html=0;" vertex="1" parent="YuR1K-Is_MYV1LeaTMjd-157">
          <mxGeometry y="138" width="420" height="26" as="geometry" />
        </mxCell>
        <mxCell id="YuR1K-Is_MYV1LeaTMjd-164" value="+ DeleteBackup(name: string): voidÂ " style="text;align=left;verticalAlign=top;spacingLeft=4;spacingRight=4;overflow=hidden;rotatable=0;points=[[0,0.5],[1,0.5]];portConstraint=eastwest;" vertex="1" parent="YuR1K-Is_MYV1LeaTMjd-157">
          <mxGeometry y="164" width="420" height="26" as="geometry" />
        </mxCell>
        <mxCell id="YuR1K-Is_MYV1LeaTMjd-165" value="BackupModelÂ " style="swimlane;fontStyle=0;align=center;verticalAlign=top;childLayout=stackLayout;horizontal=1;startSize=26;horizontalStack=0;resizeParent=1;resizeLast=0;collapsible=1;marginBottom=0;rounded=0;shadow=0;strokeWidth=1;" vertex="1" parent="1">
          <mxGeometry x="4330" y="1720" width="420" height="220" as="geometry">
            <mxRectangle x="550" y="140" width="160" height="26" as="alternateBounds" />
          </mxGeometry>
        </mxCell>
        <mxCell id="YuR1K-Is_MYV1LeaTMjd-166" value="+ Name : string" style="text;align=left;verticalAlign=top;spacingLeft=4;spacingRight=4;overflow=hidden;rotatable=0;points=[[0,0.5],[1,0.5]];portConstraint=eastwest;" vertex="1" parent="YuR1K-Is_MYV1LeaTMjd-165">
          <mxGeometry y="26" width="420" height="26" as="geometry" />
        </mxCell>
        <mxCell id="YuR1K-Is_MYV1LeaTMjd-167" value="+ SourcePath : string&#xa;Â " style="text;align=left;verticalAlign=top;spacingLeft=4;spacingRight=4;overflow=hidden;rotatable=0;points=[[0,0.5],[1,0.5]];portConstraint=eastwest;rounded=0;shadow=0;html=0;" vertex="1" parent="YuR1K-Is_MYV1LeaTMjd-165">
          <mxGeometry y="52" width="420" height="26" as="geometry" />
        </mxCell>
        <mxCell id="YuR1K-Is_MYV1LeaTMjd-168" value="+ DestinationPath : stringÂ " style="text;align=left;verticalAlign=top;spacingLeft=4;spacingRight=4;overflow=hidden;rotatable=0;points=[[0,0.5],[1,0.5]];portConstraint=eastwest;rounded=0;shadow=0;html=0;" vertex="1" parent="YuR1K-Is_MYV1LeaTMjd-165">
          <mxGeometry y="78" width="420" height="26" as="geometry" />
        </mxCell>
        <mxCell id="YuR1K-Is_MYV1LeaTMjd-169" value="+ BackupType : stringÂ " style="text;align=left;verticalAlign=top;spacingLeft=4;spacingRight=4;overflow=hidden;rotatable=0;points=[[0,0.5],[1,0.5]];portConstraint=eastwest;rounded=0;shadow=0;html=0;" vertex="1" parent="YuR1K-Is_MYV1LeaTMjd-165">
          <mxGeometry y="104" width="420" height="26" as="geometry" />
        </mxCell>
        <mxCell id="YuR1K-Is_MYV1LeaTMjd-170" value="+ CreationTime : DateTimeÂ Â " style="text;align=left;verticalAlign=top;spacingLeft=4;spacingRight=4;overflow=hidden;rotatable=0;points=[[0,0.5],[1,0.5]];portConstraint=eastwest;rounded=0;shadow=0;html=0;" vertex="1" parent="YuR1K-Is_MYV1LeaTMjd-165">
          <mxGeometry y="130" width="420" height="26" as="geometry" />
        </mxCell>
        <mxCell id="YuR1K-Is_MYV1LeaTMjd-171" value="+ IsDirectory : boolÂ Â " style="text;align=left;verticalAlign=top;spacingLeft=4;spacingRight=4;overflow=hidden;rotatable=0;points=[[0,0.5],[1,0.5]];portConstraint=eastwest;" vertex="1" parent="YuR1K-Is_MYV1LeaTMjd-165">
          <mxGeometry y="156" width="420" height="26" as="geometry" />
        </mxCell>
        <mxCell id="YuR1K-Is_MYV1LeaTMjd-172" value="" style="line;html=1;strokeWidth=1;align=left;verticalAlign=middle;spacingTop=-1;spacingLeft=3;spacingRight=3;rotatable=0;labelPosition=right;points=[];portConstraint=eastwest;" vertex="1" parent="YuR1K-Is_MYV1LeaTMjd-165">
          <mxGeometry y="182" width="420" height="8" as="geometry" />
        </mxCell>
        <mxCell id="YuR1K-Is_MYV1LeaTMjd-173" value="Gets and sets" style="text;html=1;align=center;verticalAlign=middle;resizable=0;points=[];autosize=1;strokeColor=none;fillColor=none;" vertex="1" parent="YuR1K-Is_MYV1LeaTMjd-165">
          <mxGeometry y="190" width="420" height="30" as="geometry" />
        </mxCell>
        <mxCell id="YuR1K-Is_MYV1LeaTMjd-174" value="StateServiceÂ " style="swimlane;fontStyle=0;align=center;verticalAlign=top;childLayout=stackLayout;horizontal=1;startSize=26;horizontalStack=0;resizeParent=1;resizeLast=0;collapsible=1;marginBottom=0;rounded=0;shadow=0;strokeWidth=1;" vertex="1" parent="1">
          <mxGeometry x="3120" y="1620" width="380" height="120" as="geometry">
            <mxRectangle x="130" y="380" width="160" height="26" as="alternateBounds" />
          </mxGeometry>
        </mxCell>
        <mxCell id="YuR1K-Is_MYV1LeaTMjd-175" value="- stateFilePath : string" style="text;align=left;verticalAlign=top;spacingLeft=4;spacingRight=4;overflow=hidden;rotatable=0;points=[[0,0.5],[1,0.5]];portConstraint=eastwest;" vertex="1" parent="YuR1K-Is_MYV1LeaTMjd-174">
          <mxGeometry y="26" width="380" height="26" as="geometry" />
        </mxCell>
        <mxCell id="YuR1K-Is_MYV1LeaTMjd-176" value="" style="line;html=1;strokeWidth=1;align=left;verticalAlign=middle;spacingTop=-1;spacingLeft=3;spacingRight=3;rotatable=0;labelPosition=right;points=[];portConstraint=eastwest;" vertex="1" parent="YuR1K-Is_MYV1LeaTMjd-174">
          <mxGeometry y="52" width="380" height="8" as="geometry" />
        </mxCell>
        <mxCell id="YuR1K-Is_MYV1LeaTMjd-177" value="+ StateService(stateFilePath: string)Â " style="text;align=left;verticalAlign=top;spacingLeft=4;spacingRight=4;overflow=hidden;rotatable=0;points=[[0,0.5],[1,0.5]];portConstraint=eastwest;rounded=0;shadow=0;html=0;" vertex="1" parent="YuR1K-Is_MYV1LeaTMjd-174">
          <mxGeometry y="60" width="380" height="26" as="geometry" />
        </mxCell>
        <mxCell id="YuR1K-Is_MYV1LeaTMjd-178" value="+ UpdateState(newState: StateEntry): voidÂ " style="text;align=left;verticalAlign=top;spacingLeft=4;spacingRight=4;overflow=hidden;rotatable=0;points=[[0,0.5],[1,0.5]];portConstraint=eastwest;fontStyle=0" vertex="1" parent="YuR1K-Is_MYV1LeaTMjd-174">
          <mxGeometry y="86" width="380" height="26" as="geometry" />
        </mxCell>
        <mxCell id="YuR1K-Is_MYV1LeaTMjd-179" value="StateEntryÂ Â " style="swimlane;fontStyle=0;align=center;verticalAlign=top;childLayout=stackLayout;horizontal=1;startSize=26;horizontalStack=0;resizeParent=1;resizeLast=0;collapsible=1;marginBottom=0;rounded=0;shadow=0;strokeWidth=1;" vertex="1" parent="1">
          <mxGeometry x="3090" y="1900" width="420" height="270" as="geometry">
            <mxRectangle x="550" y="140" width="160" height="26" as="alternateBounds" />
          </mxGeometry>
        </mxCell>
        <mxCell id="YuR1K-Is_MYV1LeaTMjd-180" value="+ BackupName : string" style="text;align=left;verticalAlign=top;spacingLeft=4;spacingRight=4;overflow=hidden;rotatable=0;points=[[0,0.5],[1,0.5]];portConstraint=eastwest;" vertex="1" parent="YuR1K-Is_MYV1LeaTMjd-179">
          <mxGeometry y="26" width="420" height="26" as="geometry" />
        </mxCell>
        <mxCell id="YuR1K-Is_MYV1LeaTMjd-181" value="+ LastActionTimestamp : DateTimeÂ  Â " style="text;align=left;verticalAlign=top;spacingLeft=4;spacingRight=4;overflow=hidden;rotatable=0;points=[[0,0.5],[1,0.5]];portConstraint=eastwest;rounded=0;shadow=0;html=0;" vertex="1" parent="YuR1K-Is_MYV1LeaTMjd-179">
          <mxGeometry y="52" width="420" height="26" as="geometry" />
        </mxCell>
        <mxCell id="YuR1K-Is_MYV1LeaTMjd-182" value="+ Status : stringÂ Â " style="text;align=left;verticalAlign=top;spacingLeft=4;spacingRight=4;overflow=hidden;rotatable=0;points=[[0,0.5],[1,0.5]];portConstraint=eastwest;rounded=0;shadow=0;html=0;" vertex="1" parent="YuR1K-Is_MYV1LeaTMjd-179">
          <mxGeometry y="78" width="420" height="26" as="geometry" />
        </mxCell>
        <mxCell id="YuR1K-Is_MYV1LeaTMjd-183" value="+ TotalFiles : intÂ " style="text;align=left;verticalAlign=top;spacingLeft=4;spacingRight=4;overflow=hidden;rotatable=0;points=[[0,0.5],[1,0.5]];portConstraint=eastwest;rounded=0;shadow=0;html=0;" vertex="1" parent="YuR1K-Is_MYV1LeaTMjd-179">
          <mxGeometry y="104" width="420" height="26" as="geometry" />
        </mxCell>
        <mxCell id="YuR1K-Is_MYV1LeaTMjd-184" value="+ TotalSize : longÂ Â " style="text;align=left;verticalAlign=top;spacingLeft=4;spacingRight=4;overflow=hidden;rotatable=0;points=[[0,0.5],[1,0.5]];portConstraint=eastwest;rounded=0;shadow=0;html=0;" vertex="1" parent="YuR1K-Is_MYV1LeaTMjd-179">
          <mxGeometry y="130" width="420" height="26" as="geometry" />
        </mxCell>
        <mxCell id="YuR1K-Is_MYV1LeaTMjd-185" value="+ Progress : intÂ Â " style="text;align=left;verticalAlign=top;spacingLeft=4;spacingRight=4;overflow=hidden;rotatable=0;points=[[0,0.5],[1,0.5]];portConstraint=eastwest;" vertex="1" parent="YuR1K-Is_MYV1LeaTMjd-179">
          <mxGeometry y="156" width="420" height="26" as="geometry" />
        </mxCell>
        <mxCell id="YuR1K-Is_MYV1LeaTMjd-186" value="+ RemainingFiles : int&#xa;Â " style="text;align=left;verticalAlign=top;spacingLeft=4;spacingRight=4;overflow=hidden;rotatable=0;points=[[0,0.5],[1,0.5]];portConstraint=eastwest;" vertex="1" parent="YuR1K-Is_MYV1LeaTMjd-179">
          <mxGeometry y="182" width="420" height="26" as="geometry" />
        </mxCell>
        <mxCell id="YuR1K-Is_MYV1LeaTMjd-187" value="+ RemainingSize : long&#xa;Â " style="text;align=left;verticalAlign=top;spacingLeft=4;spacingRight=4;overflow=hidden;rotatable=0;points=[[0,0.5],[1,0.5]];portConstraint=eastwest;" vertex="1" parent="YuR1K-Is_MYV1LeaTMjd-179">
          <mxGeometry y="208" width="420" height="26" as="geometry" />
        </mxCell>
        <mxCell id="YuR1K-Is_MYV1LeaTMjd-188" value="+ CurrentSource : stringÂ " style="text;align=left;verticalAlign=top;spacingLeft=4;spacingRight=4;overflow=hidden;rotatable=0;points=[[0,0.5],[1,0.5]];portConstraint=eastwest;" vertex="1" parent="YuR1K-Is_MYV1LeaTMjd-179">
          <mxGeometry y="234" width="420" height="26" as="geometry" />
        </mxCell>
        <mxCell id="YuR1K-Is_MYV1LeaTMjd-189" value="Use" style="endArrow=open;endSize=12;dashed=1;html=1;rounded=0;entryX=0;entryY=0.5;entryDx=0;entryDy=0;exitX=0.54;exitY=0.003;exitDx=0;exitDy=0;exitPerimeter=0;" edge="1" parent="1" source="YuR1K-Is_MYV1LeaTMjd-140" target="YuR1K-Is_MYV1LeaTMjd-161">
          <mxGeometry x="0.1109" y="19" width="160" relative="1" as="geometry">
            <mxPoint x="3940" y="1500" as="sourcePoint" />
            <mxPoint x="4330" y="1499" as="targetPoint" />
            <Array as="points">
              <mxPoint x="3932" y="1499" />
            </Array>
            <mxPoint as="offset" />
          </mxGeometry>
        </mxCell>
        <mxCell id="YuR1K-Is_MYV1LeaTMjd-190" value="Use" style="endArrow=open;endSize=12;dashed=1;html=1;rounded=0;exitX=0.5;exitY=1;exitDx=0;exitDy=0;entryX=0.534;entryY=-0.025;entryDx=0;entryDy=0;entryPerimeter=0;" edge="1" parent="1" source="YuR1K-Is_MYV1LeaTMjd-140" target="YuR1K-Is_MYV1LeaTMjd-152">
          <mxGeometry width="160" relative="1" as="geometry">
            <mxPoint x="4010" y="1770" as="sourcePoint" />
            <mxPoint x="4170" y="1770" as="targetPoint" />
          </mxGeometry>
        </mxCell>
        <mxCell id="YuR1K-Is_MYV1LeaTMjd-191" value="Use" style="endArrow=open;endSize=12;dashed=1;html=1;rounded=0;exitX=0.005;exitY=0.414;exitDx=0;exitDy=0;exitPerimeter=0;entryX=1;entryY=0.694;entryDx=0;entryDy=0;entryPerimeter=0;" edge="1" parent="1" source="YuR1K-Is_MYV1LeaTMjd-144" target="YuR1K-Is_MYV1LeaTMjd-177">
          <mxGeometry width="160" relative="1" as="geometry">
            <mxPoint x="3620" y="1860" as="sourcePoint" />
            <mxPoint x="3780" y="1860" as="targetPoint" />
          </mxGeometry>
        </mxCell>
        <mxCell id="YuR1K-Is_MYV1LeaTMjd-192" value="1" style="endArrow=open;html=1;endSize=12;startArrow=diamondThin;startSize=14;startFill=1;edgeStyle=orthogonalEdgeStyle;align=left;verticalAlign=bottom;rounded=0;exitX=0.5;exitY=1;exitDx=0;exitDy=0;entryX=0.524;entryY=0;entryDx=0;entryDy=0;entryPerimeter=0;" edge="1" parent="1" source="YuR1K-Is_MYV1LeaTMjd-157" target="YuR1K-Is_MYV1LeaTMjd-165">
          <mxGeometry x="-1" y="3" relative="1" as="geometry">
            <mxPoint x="4650" y="1680" as="sourcePoint" />
            <mxPoint x="4550" y="1680" as="targetPoint" />
            <Array as="points" />
          </mxGeometry>
        </mxCell>
        <mxCell id="YuR1K-Is_MYV1LeaTMjd-193" value="1" style="endArrow=open;html=1;endSize=12;startArrow=diamondThin;startSize=14;startFill=1;edgeStyle=orthogonalEdgeStyle;align=left;verticalAlign=bottom;rounded=0;exitX=0.5;exitY=1;exitDx=0;exitDy=0;entryX=0.5;entryY=0;entryDx=0;entryDy=0;" edge="1" parent="1" source="YuR1K-Is_MYV1LeaTMjd-152" target="YuR1K-Is_MYV1LeaTMjd-145">
          <mxGeometry x="-1" y="3" relative="1" as="geometry">
            <mxPoint x="3900" y="2170" as="sourcePoint" />
            <mxPoint x="3900" y="2290" as="targetPoint" />
            <Array as="points" />
          </mxGeometry>
        </mxCell>
        <mxCell id="YuR1K-Is_MYV1LeaTMjd-194" value="1" style="endArrow=open;html=1;endSize=12;startArrow=diamondThin;startSize=14;startFill=1;edgeStyle=orthogonalEdgeStyle;align=left;verticalAlign=bottom;rounded=0;entryX=0.524;entryY=0;entryDx=0;entryDy=0;entryPerimeter=0;" edge="1" parent="1">
          <mxGeometry x="-1" y="3" relative="1" as="geometry">
            <mxPoint x="3300" y="1740" as="sourcePoint" />
            <mxPoint x="3299.5" y="1900" as="targetPoint" />
            <Array as="points" />
          </mxGeometry>
        </mxCell>
        <mxCell id="YuR1K-Is_MYV1LeaTMjd-195" value="" style="ellipse;whiteSpace=wrap;html=1;labelBackgroundColor=none;fillColor=#dae8fc;strokeColor=#6c8ebf;" vertex="1" parent="1">
          <mxGeometry x="2920" y="1190" width="320" height="135" as="geometry" />
        </mxCell>
        <mxCell id="YuR1K-Is_MYV1LeaTMjd-196" value="Classes" style="text;html=1;align=center;verticalAlign=middle;whiteSpace=wrap;rounded=0;fontSize=50;fontColor=#3399FF;fontStyle=5" vertex="1" parent="1">
          <mxGeometry x="2930" y="1240" width="310" height="30" as="geometry" />
        </mxCell>
      </root>
    </mxGraphModel>
  </diagram>
</mxfile>
